<?xml version="1.0" encoding="UTF-8" standalone="no"?>
<!-- Created with Inkscape (http://www.inkscape.org/) -->

<svg
   width="161.86163mm"
   height="156.87125mm"
   viewBox="0 0 161.86163 156.87125"
   version="1.1"
   id="svg23151"
   inkscape:version="1.2.2 (b0a8486, 2022-12-01)"
   sodipodi:docname="mascot_right.svg"
   xmlns:inkscape="http://www.inkscape.org/namespaces/inkscape"
   xmlns:sodipodi="http://sodipodi.sourceforge.net/DTD/sodipodi-0.dtd"
   xmlns="http://www.w3.org/2000/svg"
   xmlns:svg="http://www.w3.org/2000/svg">
  <sodipodi:namedview
     id="namedview23153"
     pagecolor="#ffffff"
     bordercolor="#000000"
     borderopacity="0.25"
     inkscape:showpageshadow="2"
     inkscape:pageopacity="0.0"
     inkscape:pagecheckerboard="0"
     inkscape:deskcolor="#d1d1d1"
     inkscape:document-units="mm"
     showgrid="false"
     inkscape:zoom="0.32197028"
     inkscape:cx="360.2817"
     inkscape:cy="273.31715"
     inkscape:window-width="1309"
     inkscape:window-height="586"
     inkscape:window-x="156"
     inkscape:window-y="140"
     inkscape:window-maximized="0"
     inkscape:current-layer="layer1" />
  <defs
     id="defs23148" />
  <g
     inkscape:label="Layer 1"
     inkscape:groupmode="layer"
     id="layer1"
     transform="translate(-26.064612,-39.672489)">
    <rect
       style="fill:#fcd86a;fill-opacity:1;stroke:#000000;stroke-width:2.248;stroke-linecap:round;stroke-dasharray:none;stroke-opacity:1;paint-order:markers fill stroke"
       id="rect234"
       width="88.859673"
       height="79.590439"
       x="64.867294"
       y="89.746635"
       ry="10.033061" />
    <path
       sodipodi:type="spiral"
       style="fill:none;fill-rule:evenodd;stroke:#000000;stroke-width:2;stroke-dasharray:none"
       id="path3353"
       sodipodi:cx="75.269966"
       sodipodi:cy="146.60425"
       sodipodi:expansion="1"
       sodipodi:revolution="1.5063983"
       sodipodi:radius="8.4066257"
       sodipodi:argument="-12.247802"
       sodipodi:t0="0.80031735"
       d="m 75.003778,153.32695 c -4.115336,0.37835 -7.572639,-3.04181 -7.850573,-7.04409 -0.06129,-0.88264 0.02353,-1.77405 0.245392,-2.63038"
       transform="rotate(-52.346396,86.579095,106.3487)"
       inkscape:transform-center-x="-0.24092901"
       inkscape:transform-center-y="-0.64824413" />
    <rect
       style="fill:#fcd86a;fill-opacity:1;stroke:#000000;stroke-width:2.4;stroke-linecap:round;stroke-dasharray:none;stroke-opacity:1;paint-order:markers fill stroke"
       id="rect3377"
       width="106.83047"
       height="28.25802"
       x="55.360802"
       y="72.702728"
       ry="3.5621674" />
    <path
       id="path3482"
       style="fill:#000000;fill-opacity:1;stroke:#000000;stroke-width:3.30239;stroke-linecap:round;stroke-dasharray:none;stroke-opacity:1;paint-order:markers fill stroke"
       d="m 85.07926,41.592662 c -0.95925,0.0028 -1.9207,0.08257 -2.85208,0.292959 -2.18522,0.493587 -4.428813,1.157359 -6.258807,2.449623 -1.470734,1.038567 -2.632502,2.525066 -3.53755,4.081521 -0.82198,1.41361 -1.306372,3.023846 -1.632607,4.626196 -0.290102,1.424893 -0.404887,2.905783 -0.272338,4.353858 0.136362,1.489733 0.894041,4.675064 1.534485,6.026998 1.553734,3.279835 2.089685,3.22108 3.110909,4.498198 1.642762,2.054446 3.12438,2.286673 5.547028,3.311447 8.85558,3.745904 28.00888,-0.167817 28.00888,-0.167817 0,0 -0.49048,-4.353448 -1.00402,-6.657002 -0.55718,-2.499383 -1.14852,-5.187179 -2.26188,-7.493215 -0.9883,-2.046997 -1.97815,-4.112877 -3.26523,-5.986467 -1.34814,-1.962476 -2.78006,-3.938999 -4.62619,-5.4425 -1.70219,-1.386253 -3.70139,-2.447116 -5.77741,-3.16069 -1.80498,-0.620403 -3.84941,-0.625713 -5.75608,-0.711777 -0.31796,-0.01435 -0.63735,-0.02224 -0.95711,-0.02133 z m 6.80207,12.039773 c 0.60981,7.16e-4 1.23605,0.08817 1.85162,0.215454 1.05463,0.218055 2.18691,0.408325 3.17917,0.88812 1.14127,0.55185 2.23615,1.272915 3.16283,2.131778 1.00498,0.931514 1.77463,2.064667 2.49868,3.183442 0.6913,1.068093 1.21613,2.206876 1.73997,3.335612 0.59016,1.271573 0.88689,2.688833 1.16686,4.007575 0.25813,1.215446 0.47997,3.468572 0.47997,3.468572 0,0 -10.64813,0.233507 -15.50835,-2.476643 -1.3296,-0.741401 -2.14729,-0.99486 -3.0334,-2.187244 -0.55087,-0.741208 -0.84813,-0.760417 -1.67101,-2.566232 -0.33913,-0.744355 -0.7227,-2.429532 -0.78146,-3.197664 -0.057,-0.746644 0.0237,-1.487445 0.20052,-2.183684 0.19886,-0.782948 0.48521,-1.555328 0.95638,-2.197195 0.51876,-0.70673 1.17913,-1.354796 2.00521,-1.74709 1.02786,-0.488114 2.27734,-0.619325 3.49276,-0.669824 0.0863,-0.0036 0.17313,-0.0051 0.26024,-0.005 z" />
    <path
       id="path3888"
       style="fill:#000000;fill-opacity:1;stroke:#000000;stroke-width:3.30239;stroke-linecap:round;stroke-dasharray:none;stroke-opacity:1;paint-order:markers fill stroke"
       d="m 134.34465,41.323755 c 0.95925,0.0028 1.9207,0.08257 2.85208,0.292959 2.18522,0.493587 4.42881,1.157359 6.25881,2.449623 1.47073,1.038567 2.6325,2.525066 3.53755,4.081521 0.82198,1.41361 1.30637,3.023846 1.63261,4.626196 0.2901,1.424893 0.40488,2.905783 0.27233,4.353858 -0.13636,1.489733 -0.89404,4.675064 -1.53448,6.026998 -1.55374,3.279831 -2.08969,3.221076 -3.11091,4.498193 -1.64276,2.054447 -3.12438,2.286674 -5.54703,3.311447 -8.85557,3.745905 -28.00888,-0.167816 -28.00888,-0.167816 0,0 0.49048,-4.353448 1.00402,-6.656998 0.55718,-2.499383 1.14853,-5.187179 2.26189,-7.493215 0.9883,-2.046997 1.97815,-4.112877 3.26522,-5.986467 1.34814,-1.962476 2.78005,-3.938999 4.62619,-5.4425 1.70219,-1.386253 3.70139,-2.447116 5.77741,-3.16069 1.80498,-0.620403 3.84941,-0.625713 5.75609,-0.711777 0.31795,-0.01435 0.63734,-0.02224 0.9571,-0.02133 z m -6.80206,12.039773 c -0.60982,7.16e-4 -1.23606,0.08817 -1.85163,0.215454 -1.05463,0.218055 -2.18691,0.408325 -3.17917,0.88812 -1.14127,0.55185 -2.23615,1.272915 -3.16283,2.131778 -1.00498,0.931514 -1.77463,2.064667 -2.49868,3.183442 -0.6913,1.068093 -1.21612,2.206876 -1.73997,3.335612 -0.59015,1.271573 -0.88687,2.688829 -1.16686,4.007571 -0.25813,1.215446 -0.47996,3.468572 -0.47996,3.468572 0,0 10.64812,0.233507 15.50834,-2.476643 1.3296,-0.741401 2.14729,-0.99486 3.0334,-2.187244 0.55087,-0.741208 0.84813,-0.760417 1.67101,-2.566228 0.33913,-0.744355 0.72271,-2.429532 0.78146,-3.197664 0.057,-0.746644 -0.0237,-1.487445 -0.20052,-2.183684 -0.19886,-0.782948 -0.48521,-1.555328 -0.95638,-2.197195 -0.51876,-0.70673 -1.17913,-1.354796 -2.00521,-1.74709 -1.02786,-0.488114 -2.27734,-0.619325 -3.49276,-0.669824 -0.0863,-0.0036 -0.17313,-0.0051 -0.26024,-0.005 z" />
    <path
       style="fill:#fcd86a;fill-opacity:1;stroke:#000000;stroke-width:2.21902;stroke-linecap:round;stroke-dasharray:none;stroke-opacity:1;paint-order:markers fill stroke"
       d="m 62.610889,143.6364 c -1.770351,-0.12192 -3.583497,-0.25249 -5.244209,-0.72837 -1.628466,-0.46664 -3.320147,-1.05495 -4.46729,-2.03944 -0.744036,-0.63856 -1.128114,-1.50072 -1.359616,-2.33079 -0.198844,-0.71295 0,-1.45674 0,-2.18511 0,-0.5827 0.161284,-1.17809 0,-1.7481 -0.264739,-0.93563 -0.484514,-2.10092 -1.55384,-2.62212 -0.48858,-0.23814 -1.17154,-0.38369 -1.74806,-0.3202 -0.66877,0.0736 -0.89111,0.28544 -1.45955,0.55974 -0.57879,0.27929 -1.15726,1.31368 -1.84236,1.36288 -1.46965,0.10549 -2.15,-1.58471 -3.49613,-2.03944 -0.96096,-0.32462 -2.057,-0.49928 -3.10768,-0.43703 -0.95949,0.0568 -1.9184,0.32795 -2.71923,0.72837 -0.80083,0.40042 -1.59523,0.92911 -1.9423,1.60241 -0.46691,0.90583 -0.13414,1.94754 0,2.91349 0.13018,0.93775 0.53698,1.90697 1.04972,2.76781 0.49119,0.82468 1.06146,1.51149 1.86374,2.18511 0.76305,0.6407 1.43834,1.27999 2.2522,1.88449 1.07391,0.79769 2.25878,1.45879 3.4714,2.13546 1.04533,0.58332 2.20268,1.23688 3.35974,1.68616 1.8263,0.70916 3.62853,1.34923 5.483891,2.01462 1.648972,0.59136 3.321793,1.1561 5.049987,1.60242 1.64829,0.42566 3.33705,0.77685 5.049972,1.0197 0.576074,0.0817 1.162699,0.12138 1.748074,0.14569 0.452511,0.0188 1.359602,0 1.359602,0 v -8.15775 c 0,0 -1.167817,0.0399 -1.748061,0 z"
       id="path4203"
       sodipodi:nodetypes="ssssssssssssssssssssssssccs" />
    <path
       style="fill:#fcd86a;fill-opacity:1;stroke:#000000;stroke-width:2.23997;stroke-linecap:round;stroke-dasharray:none;stroke-opacity:1;paint-order:markers fill stroke"
       d="m 156.4387,152.24474 c 1.84441,0.13409 3.73337,0.277 5.46071,0.75616 1.69379,0.46986 3.45252,1.05918 4.6405,2.03118 0.77049,0.63047 1.16406,1.47643 1.39881,2.28974 0.20164,0.69858 -0.0115,1.42395 -0.0173,2.13592 -0.005,0.56957 -0.17742,1.1502 -0.0138,1.70872 0.26857,0.9168 0.48846,2.0577 1.59898,2.57617 0.50741,0.2369 1.21816,0.38492 1.81961,0.32773 0.69768,-0.0663 0.93113,-0.2715 1.52583,-0.53485 0.60552,-0.26811 1.21673,-1.2743 1.93122,-1.31664 1.53278,-0.0907 2.2286,1.56713 3.62819,2.02297 0.99911,0.32542 2.14023,0.50537 3.23594,0.45338 1.00057,-0.0474 2.00229,-0.3044 2.84022,-0.68904 0.83792,-0.38466 1.67018,-0.89475 2.03728,-1.54995 0.49387,-0.88151 0.15521,-1.90257 0.023,-2.84788 -0.12828,-0.91774 -0.54467,-1.86856 -1.07233,-2.71434 -0.5055,-0.81025 -1.09452,-1.48639 -1.92546,-2.1516 -0.7903,-0.63273 -1.48916,-1.26331 -2.33277,-1.86104 -1.11311,-0.78877 -2.34297,-1.44498 -3.60164,-2.11664 -1.08502,-0.57899 -2.28625,-1.22757 -3.4888,-1.6765 -1.8981,-0.70858 -3.77166,-1.34943 -5.70038,-2.01547 -1.71418,-0.59194 -3.45345,-1.15806 -5.25135,-1.60889 -1.71478,-0.42997 -3.47233,-0.78749 -5.25594,-1.03931 -0.59984,-0.0847 -1.21102,-0.12844 -1.82102,-0.15713 -0.47153,-0.0222 -1.41721,-0.0115 -1.41721,-0.0115 l -0.0645,7.97405 c 0,0 1.21763,-0.0293 1.82214,0.0147 z"
       id="path4205"
       sodipodi:nodetypes="ssssssssssssssssssssssssccs" />
    <path
       style="fill:#fcd86a;fill-opacity:1;stroke:#000000;stroke-width:2.4;stroke-linecap:round;stroke-dasharray:none;stroke-opacity:1;paint-order:markers fill stroke"
       d="m 91.99097,171.29713 -2.88465,12.44004 c 0,0 -1.66098,-0.57706 -2.52405,-0.72117 -1.12781,-0.18831 -3.20289,-0.61323 -4.34103,-0.5034 -1.47983,0.14279 -2.385499,0.32888 -3.411459,1.40486 -0.634393,0.66532 -0.682658,1.79605 -0.540874,2.70434 0.190865,1.22267 0.916502,2.38176 1.802913,3.24523 1.11677,1.08787 2.69861,1.58579 4.14667,2.16348 1.62547,0.64847 3.315,1.19959 5.04812,1.44232 1.36887,0.19172 2.76505,0.41757 4.14668,0.37697 1.02297,-0.0301 2.69448,-0.0871 3.60347,-0.55726 0.68356,-0.35362 0.90378,-1.8029 0.90378,-1.8029 l 5.22842,-20.73337 z"
       id="path4207"
       sodipodi:nodetypes="ccsssssssssccc" />
    <rect
       style="fill:#000000;fill-opacity:1;stroke:none;stroke-width:1.2161;stroke-linecap:round;paint-order:markers fill stroke"
       id="rect11447"
       width="15.033797"
       height="27.776848"
       x="102.23988"
       y="72.305878"
       ry="1.5414665" />
    <path
       style="fill:#1e1701;stroke:none;stroke-width:1.05236;stroke-linecap:round;paint-order:markers fill stroke"
       id="path23401"
       sodipodi:type="arc"
       sodipodi:cx="92.901367"
       sodipodi:cy="124.30214"
       sodipodi:rx="13.10601"
       sodipodi:ry="14.493608"
       sodipodi:start="0"
       sodipodi:end="3.1488337"
       sodipodi:open="true"
       sodipodi:arc-type="arc"
       d="M 106.00738,124.30214 A 13.10601,14.493608 0 0 1 99.426958,136.87143 13.10601,14.493608 0 0 1 86.293647,136.81884 13.10601,14.493608 0 0 1 79.7957,124.19719" />
    <path
       style="fill:#1e1701;stroke:none;stroke-width:1.0476;stroke-linecap:round;paint-order:markers fill stroke"
       id="path23766"
       sodipodi:type="arc"
       sodipodi:cx="124.17075"
       sodipodi:cy="124.00433"
       sodipodi:rx="13.10601"
       sodipodi:ry="14.36258"
       sodipodi:start="0"
       sodipodi:end="3.1488337"
       sodipodi:open="true"
       sodipodi:arc-type="arc"
       d="m 137.27676,124.00433 a 13.10601,14.36258 0 0 1 -6.58042,12.45566 13.10601,14.36258 0 0 1 -13.13331,-0.0521 13.10601,14.36258 0 0 1 -6.49794,-12.50755" />
    <path
       sodipodi:type="spiral"
       style="fill:none;fill-rule:evenodd;stroke:#000000;stroke-width:1.965;stroke-dasharray:none"
       id="path23821"
       sodipodi:cx="106.26811"
       sodipodi:cy="129.33296"
       sodipodi:expansion="1"
       sodipodi:revolution="1.5063983"
       sodipodi:radius="3.164084"
       sodipodi:argument="-9.928627"
       sodipodi:t0="0.80031735"
       d="m 104.48211,127.53781 c 0.94961,-1.23195 2.77837,-1.30957 3.95341,-0.36121 0.25914,0.20915 0.48327,0.46084 0.66264,0.74134"
       transform="matrix(2.2469874,-0.06804066,0.23934747,0.63876385,-162.05891,54.689347)" />
    <path
       style="fill:#fcd86a;fill-opacity:1;stroke:#000000;stroke-width:2.4;stroke-linecap:round;stroke-dasharray:none;stroke-opacity:1;paint-order:markers fill stroke"
       d="m 118.20581,170.09648 c 0,0 1.26297,8.90302 0.0714,13.62602 -0.31454,1.24673 -1.56124,2.83642 -1.9313,4.06781 -0.23432,0.77972 -0.42493,1.91109 -0.41928,2.72524 0.005,0.6897 0.005,1.24008 0.24532,1.88668 0.18694,0.50358 0.80322,1.24686 1.28457,1.48528 3.63884,1.80239 8.84138,1.88028 12.6107,0.36967 1.68164,-0.67394 2.39751,-1.42212 2.67718,-2.87698 0.20074,-1.04426 0.0249,-2.57683 -0.18733,-3.61883 -0.18523,-0.90962 -0.96445,-1.59218 -1.61897,-2.25046 -0.51532,-0.5183 -2.1506,-1.09086 -2.8704,-1.21767 -1.10694,-0.19501 -2.29976,-0.0209 -3.42366,-0.0345 -1.93271,-0.0233 3.22288,-0.0922 3.19156,-1.16058 -0.0672,-2.29091 0.16633,-3.19196 0.0564,-5.23656 -0.19676,-3.65879 -0.50692,-7.57782 -0.50692,-7.57782 z"
       id="path23823"
       sodipodi:nodetypes="cssssssssssssscc" />
    <rect
       style="fill:#ffffff;fill-opacity:1;stroke:none;stroke-width:1.55986;stroke-linecap:round;stroke-dasharray:none;stroke-opacity:1;paint-order:markers fill stroke"
       id="rect24703"
       width="2.0309556"
       height="9.4077158"
       x="52.188358"
       y="197.02313"
       transform="matrix(0.50668553,-0.86213095,0.49242649,0.87035404,0,0)" />
    <rect
       style="fill:#ffffff;fill-opacity:1;stroke:none;stroke-width:1.55986;stroke-linecap:round;stroke-dasharray:none;stroke-opacity:1;paint-order:markers fill stroke"
       id="rect25069"
       width="2.0309556"
       height="9.4077158"
       x="48.222656"
       y="193.21552"
       transform="matrix(0.50668553,-0.86213095,0.49242649,0.87035404,0,0)" />
    <rect
       style="fill:#ffffff;fill-opacity:1;stroke:none;stroke-width:1.55986;stroke-linecap:round;stroke-dasharray:none;stroke-opacity:1;paint-order:markers fill stroke"
       id="rect25813"
       width="2.0309556"
       height="9.4077158"
       x="20.09004"
       y="165.94981"
       transform="matrix(0.50668553,-0.86213095,0.49242649,0.87035404,0,0)" />
    <rect
       style="fill:#ffffff;fill-opacity:1;stroke:none;stroke-width:1.55986;stroke-linecap:round;stroke-dasharray:none;stroke-opacity:1;paint-order:markers fill stroke"
       id="rect25815"
       width="2.0309556"
       height="9.4077158"
       x="16.124338"
       y="162.1422"
       transform="matrix(0.50668553,-0.86213095,0.49242649,0.87035404,0,0)" />
    <rect
       style="fill:#000000;fill-opacity:1;stroke:#000000;stroke-width:2.4;stroke-linecap:round;stroke-dasharray:none;stroke-opacity:1;paint-order:markers fill stroke"
       id="rect25817"
       width="19.260321"
       height="27.764872"
       x="27.264612"
       y="108.80831"
       ry="2.5013404" />
    <rect
       style="fill:#909090;fill-opacity:1;stroke:#000000;stroke-width:2.4;stroke-linecap:round;stroke-dasharray:none;stroke-opacity:1;paint-order:markers fill stroke"
       id="rect26079"
       width="19.260321"
       height="27.764872"
       x="27.264612"
       y="108.80831"
       ry="2.5013404" />
    <circle
       style="fill:#4c4c4c;fill-opacity:1;stroke:none;stroke-width:2.4;stroke-linecap:round;stroke-dasharray:none;stroke-opacity:1;paint-order:markers fill stroke"
       id="path26187"
       cx="37.326221"
       cy="133.14946"
       r="1" />
    <path
       style="fill:#ffffff;fill-opacity:1;stroke:#000000;stroke-width:1.17727;stroke-linecap:round;stroke-dasharray:none;stroke-opacity:1;paint-order:markers fill stroke"
       d="m 41.607722,100.39055 c 0,0 0.888117,4.38728 -0.0736,6.52098 -0.962434,2.13528 -5.279186,3.07042 -5.279186,3.07042 0,0 4.659962,-0.44366 6.80173,0.86046 1.946568,1.18527 4.004857,5.31913 4.004857,5.31913 0,0 -1.291934,-4.47747 -0.266669,-6.7463 0.881106,-1.94984 4.647936,-4.27883 4.647936,-4.27883 0,0 -3.676274,1.11237 -5.873118,0.22855 -2.168084,-0.87226 -3.961946,-4.97441 -3.961947,-4.97441 z"
       id="path26347"
       sodipodi:nodetypes="cscscscsc" />
  </g>
</svg>
