<?xml version="1.0" encoding="UTF-8" standalone="no"?>
<!-- Created with Inkscape (http://www.inkscape.org/) -->

<svg
   width="93.817131mm"
   height="96.62381mm"
   viewBox="0 0 93.817143 96.623807"
   version="1.1"
   id="svg5"
   xml:space="preserve"
   sodipodi:docname="frame1.svg"
   inkscape:version="1.2.2 (b0a8486, 2022-12-01)"
   xmlns:inkscape="http://www.inkscape.org/namespaces/inkscape"
   xmlns:sodipodi="http://sodipodi.sourceforge.net/DTD/sodipodi-0.dtd"
   xmlns="http://www.w3.org/2000/svg"
   xmlns:svg="http://www.w3.org/2000/svg"><sodipodi:namedview
     id="namedview7"
     pagecolor="#ffffff"
     bordercolor="#000000"
     borderopacity="0.25"
     inkscape:showpageshadow="2"
     inkscape:pageopacity="0.0"
     inkscape:pagecheckerboard="0"
     inkscape:deskcolor="#d1d1d1"
     inkscape:document-units="mm"
     showgrid="false"
     inkscape:zoom="0.38829571"
     inkscape:cx="87.56213"
     inkscape:cy="284.57692"
     inkscape:window-width="1309"
     inkscape:window-height="667"
     inkscape:window-x="0"
     inkscape:window-y="37"
     inkscape:window-maximized="0"
     inkscape:current-layer="layer1" /><defs
     id="defs2" /><g
     inkscape:label="Layer 1"
     inkscape:groupmode="layer"
     id="layer1"
     transform="translate(-123.62178,-76.825618)"><rect
       style="fill:#ffef63;fill-opacity:1;stroke:#000000;stroke-width:1.16563;stroke-linecap:round;stroke-dasharray:none;paint-order:markers fill stroke"
       id="rect464"
       width="83.624245"
       height="56.035145"
       x="129.02251"
       y="116.83147"
       ry="2.0020893" /><rect
       style="fill:#ffffff;fill-opacity:1;stroke:#000000;stroke-width:1.14646;stroke-linecap:round;stroke-dasharray:none;paint-order:markers fill stroke"
       id="rect1629"
       width="8.052268"
       height="82.810677"
       x="140.32961"
       y="-212.66283"
       transform="matrix(-0.00387679,0.99999249,-0.99999871,-0.00160849,0,0)"
       inkscape:label="rect1629" /><rect
       style="fill:#ffffff;fill-opacity:1;stroke:#000000;stroke-width:1.16554;stroke-linecap:round;stroke-dasharray:none;paint-order:markers fill stroke"
       id="rect1624"
       width="8.2985439"
       height="54.972507"
       x="167.16336"
       y="117.89022" /><rect
       style="fill:#ffef63;fill-opacity:1;stroke:#000000;stroke-width:1.14246;stroke-linecap:round;stroke-dasharray:none;paint-order:markers fill stroke"
       id="rect1685"
       width="92.674667"
       height="16.177151"
       x="124.19301"
       y="101.61477"
       ry="1.6507297" /><rect
       style="fill:#ffffff;fill-opacity:1;stroke:#000000;stroke-width:1.16554;stroke-linecap:round;stroke-dasharray:none;paint-order:markers fill stroke"
       id="rect1739"
       width="8.8058987"
       height="16.520134"
       x="166.90968"
       y="101.27944" /><path
       id="path3482"
       style="fill:#ffffff;fill-opacity:1;stroke:#000000;stroke-width:0.808362;stroke-linecap:round;stroke-dasharray:none;stroke-opacity:1;paint-order:markers fill stroke"
       d="m 152.00409,77.448736 c -0.77541,0.003 -1.55262,0.0668 -2.30552,0.23682 -1.76645,0.39899 -3.58009,0.93556 -5.05938,1.98019 -1.18889,0.83952 -2.12803,2.04116 -2.85963,3.29934 -0.66447,1.14271 -1.05603,2.44437 -1.31974,3.73965 -0.23451,1.15183 -0.32731,2.34893 -0.22014,3.51949 0.11025,1.20424 0.72269,3.77916 1.24042,4.87201 1.25596,2.65128 1.68921,2.60379 2.51474,3.63617 1.32795,1.660734 2.52562,1.848474 4.484,2.676854 7.15854,3.02805 22.64137,-0.13564 22.64137,-0.13564 0,0 -0.39648,-3.519184 -0.81162,-5.381284 -0.4504,-2.02041 -0.92843,-4.19312 -1.82842,-6.05725 -0.79891,-1.65471 -1.59907,-3.32469 -2.63949,-4.83923 -1.08978,-1.58639 -2.24729,-3.18415 -3.73964,-4.39953 -1.37599,-1.12058 -2.99208,-1.97814 -4.67025,-2.55498 -1.45908,-0.5015 -3.11172,-0.5058 -4.653,-0.57536 -0.25702,-0.0116 -0.51522,-0.0179 -0.7737,-0.0172 z m 5.49854,9.73251 c 0.49296,5.7e-4 0.99919,0.0713 1.49678,0.17417 0.85254,0.17626 1.76783,0.33007 2.56993,0.71792 0.92256,0.4461 1.80762,1.02898 2.55671,1.72324 0.8124,0.75301 1.43456,1.66901 2.01986,2.57338 0.55882,0.86341 0.98306,1.78396 1.40653,2.69638 0.47705,1.02791 0.71692,2.17356 0.94324,3.23958 0.20866,0.98251 0.38798,2.803864 0.38798,2.803864 0,0 -8.60755,0.18876 -12.53638,-2.002014 -1.07479,-0.59934 -1.73578,-0.80421 -2.45209,-1.7681 -0.4453,-0.59916 -0.68559,-0.61468 -1.35077,-2.07445 -0.27415,-0.60169 -0.58422,-1.96394 -0.63171,-2.58486 -0.0461,-0.60357 0.0191,-1.2024 0.1621,-1.76521 0.16075,-0.63291 0.39221,-1.25728 0.77309,-1.77614 0.41936,-0.57129 0.95316,-1.09516 1.62095,-1.41228 0.83087,-0.39458 1.84091,-0.50064 2.82341,-0.54146 0.0698,-0.003 0.13995,-0.003 0.21037,-0.003 z" /><path
       id="path3888"
       style="fill:#ffffff;fill-opacity:1;stroke:#000000;stroke-width:0.808362;stroke-linecap:round;stroke-dasharray:none;stroke-opacity:1;paint-order:markers fill stroke"
       d="m 191.82842,77.231366 c 0.77542,0.003 1.55262,0.0668 2.30552,0.23681 1.76645,0.399 3.58009,0.93558 5.0594,1.98019 1.18888,0.83953 2.12801,2.04116 2.85962,3.29934 0.66445,1.14271 1.05602,2.44437 1.31973,3.73966 0.23451,1.15183 0.3273,2.34892 0.22015,3.51949 -0.11026,1.20425 -0.72271,3.77916 -1.24042,4.872 -1.25599,2.6513 -1.68923,2.60379 -2.51474,3.63617 -1.32795,1.660744 -2.52564,1.848464 -4.48402,2.676854 -7.15852,3.02806 -22.64135,-0.13565 -22.64135,-0.13565 0,0 0.39648,-3.519174 0.81162,-5.381274 0.4504,-2.02042 0.92843,-4.19312 1.82842,-6.05724 0.79891,-1.65471 1.59907,-3.32469 2.63948,-4.83924 1.08979,-1.58639 2.2473,-3.18414 3.73965,-4.39951 1.37599,-1.1206 2.99207,-1.97817 4.67025,-2.55498 1.45908,-0.50153 3.11172,-0.50582 4.65301,-0.57537 0.25702,-0.0116 0.5152,-0.0179 0.77368,-0.0172 z m -5.49853,9.73251 c -0.49296,5.8e-4 -0.99919,0.0713 -1.49679,0.17415 -0.85252,0.17627 -1.76782,0.33008 -2.56992,0.71792 -0.92257,0.4461 -1.80763,1.02898 -2.55672,1.72326 -0.81239,0.75301 -1.43455,1.669 -2.01984,2.57338 -0.55882,0.86341 -0.98307,1.78396 -1.40652,2.69639 -0.47707,1.02789 -0.71693,2.17354 -0.94325,3.23956 -0.20867,0.98253 -0.38799,2.803874 -0.38799,2.803874 0,0 8.60755,0.18876 12.53638,-2.002024 1.0748,-0.59934 1.73579,-0.80421 2.45208,-1.76811 0.4453,-0.59915 0.6856,-0.61467 1.35078,-2.07442 0.27414,-0.60172 0.58422,-1.96395 0.6317,-2.58488 0.0461,-0.60356 -0.0191,-1.2024 -0.16209,-1.7652 -0.16075,-0.63291 -0.39222,-1.25728 -0.7731,-1.77614 -0.41934,-0.57129 -0.95316,-1.09517 -1.62094,-1.41228 -0.83088,-0.39457 -1.84091,-0.50063 -2.82342,-0.54147 -0.0697,-0.003 -0.13995,-0.003 -0.21036,-0.003 z" /></g></svg>
