<?xml version="1.0" encoding="UTF-8" standalone="no"?>
<!-- Created with Inkscape (http://www.inkscape.org/) -->

<svg
   width="210mm"
   height="297mm"
   viewBox="0 0 210 297"
   version="1.1"
   id="svg5"
   xml:space="preserve"
   inkscape:version="1.2.2 (b0a8486, 2022-12-01)"
   sodipodi:docname="mascot.svg"
   xmlns:inkscape="http://www.inkscape.org/namespaces/inkscape"
   xmlns:sodipodi="http://sodipodi.sourceforge.net/DTD/sodipodi-0.dtd"
   xmlns="http://www.w3.org/2000/svg"
   xmlns:svg="http://www.w3.org/2000/svg"><sodipodi:namedview
     id="namedview7"
     pagecolor="#ffffff"
     bordercolor="#000000"
     borderopacity="0.25"
     inkscape:showpageshadow="2"
     inkscape:pageopacity="0.0"
     inkscape:pagecheckerboard="0"
     inkscape:deskcolor="#d1d1d1"
     inkscape:document-units="mm"
     showgrid="false"
     inkscape:zoom="0.49051961"
     inkscape:cx="333.32001"
     inkscape:cy="384.28637"
     inkscape:window-width="1139"
     inkscape:window-height="677"
     inkscape:window-x="331"
     inkscape:window-y="37"
     inkscape:window-maximized="0"
     inkscape:current-layer="layer1" /><defs
     id="defs2" /><g
     inkscape:label="Layer 1"
     inkscape:groupmode="layer"
     id="layer1"><rect
       style="fill:#fcd86a;fill-opacity:1;stroke:#000000;stroke-width:2.248;stroke-linecap:round;stroke-dasharray:none;stroke-opacity:1;paint-order:markers fill stroke"
       id="rect234"
       width="88.859673"
       height="79.590439"
       x="51.64679"
       y="83.488495"
       ry="10.033061" /><ellipse
       style="fill:#000000;fill-opacity:1;stroke:#000000;stroke-width:2.4;stroke-linecap:round;stroke-dasharray:none;stroke-opacity:1;paint-order:markers fill stroke"
       id="path3036"
       cx="81.322311"
       cy="125.24117"
       rx="3.9356844"
       ry="6.149507" /><ellipse
       style="fill:#000000;fill-opacity:1;stroke:#000000;stroke-width:2.4;stroke-linecap:round;stroke-dasharray:none;stroke-opacity:1;paint-order:markers fill stroke"
       id="ellipse3298"
       cx="112.80779"
       cy="124.74921"
       rx="3.9356844"
       ry="6.149507" /><path
       sodipodi:type="spiral"
       style="fill:none;fill-rule:evenodd;stroke:#000000;stroke-width:2;stroke-dasharray:none"
       id="path3353"
       sodipodi:cx="75.269966"
       sodipodi:cy="146.60425"
       sodipodi:expansion="1"
       sodipodi:revolution="1.5063983"
       sodipodi:radius="8.4066257"
       sodipodi:argument="-12.247802"
       sodipodi:t0="0.80031735"
       d="m 75.003778,153.32695 c -4.115336,0.37835 -7.572639,-3.04181 -7.850573,-7.04409 -0.06129,-0.88264 0.02353,-1.77405 0.245392,-2.63038"
       transform="rotate(-52.346396,73.602217,116.66932)"
       inkscape:transform-center-x="-0.24092901"
       inkscape:transform-center-y="-0.64824413" /><rect
       style="fill:#fcd86a;fill-opacity:1;stroke:#000000;stroke-width:2.4;stroke-linecap:round;stroke-dasharray:none;stroke-opacity:1;paint-order:markers fill stroke"
       id="rect3377"
       width="106.83047"
       height="28.25802"
       x="42.140293"
       y="66.444588"
       ry="3.5621674" /><path
       id="path3482"
       style="fill:#000000;fill-opacity:1;stroke:#000000;stroke-width:3.30239;stroke-linecap:round;stroke-dasharray:none;stroke-opacity:1;paint-order:markers fill stroke"
       d="m 71.858756,35.334524 c -0.959249,0.0028 -1.9207,0.08257 -2.852084,0.292959 -2.185221,0.493587 -4.428812,1.157359 -6.258806,2.449623 -1.470734,1.038567 -2.632502,2.525066 -3.53755,4.081521 -0.82198,1.41361 -1.306372,3.023846 -1.632607,4.626196 -0.290102,1.424893 -0.404887,2.905783 -0.272338,4.353858 0.136362,1.489733 0.894041,4.675064 1.534485,6.026998 1.553734,3.279835 2.089685,3.22108 3.110909,4.498198 1.642762,2.054446 3.12438,2.286673 5.547029,3.311447 8.855574,3.745904 28.008885,-0.167817 28.008885,-0.167817 0,0 -0.49048,-4.353448 -1.00402,-6.657002 -0.55718,-2.499383 -1.14853,-5.187179 -2.26189,-7.493215 -0.9883,-2.046997 -1.97815,-4.112877 -3.265229,-5.986467 -1.348133,-1.962476 -2.780051,-3.938999 -4.626185,-5.4425 -1.702191,-1.386253 -3.70139,-2.447116 -5.777412,-3.16069 -1.804978,-0.620403 -3.849407,-0.625713 -5.756085,-0.711777 -0.317952,-0.01435 -0.637348,-0.02224 -0.957102,-0.02133 z m 6.802062,12.039773 c 0.609815,7.16e-4 1.236059,0.08817 1.851625,0.215454 1.054633,0.218055 2.186913,0.408325 3.179172,0.88812 1.141266,0.55185 2.236147,1.272915 3.162826,2.131778 1.004987,0.931514 1.774637,2.064667 2.498686,3.183442 0.691301,1.068093 1.216122,2.206876 1.739972,3.335612 0.59016,1.271573 0.88688,2.688833 1.16686,4.007575 0.25813,1.215446 0.47997,3.468572 0.47997,3.468572 0,0 -10.648131,0.233507 -15.508359,-2.476643 -1.329598,-0.741401 -2.147284,-0.99486 -3.033399,-2.187244 -0.550867,-0.741208 -0.848123,-0.760417 -1.671011,-2.566232 -0.339128,-0.744355 -0.722701,-2.429532 -0.781456,-3.197664 -0.05695,-0.746644 0.02371,-1.487445 0.200524,-2.183684 0.198859,-0.782948 0.485204,-1.555328 0.956373,-2.197195 0.518765,-0.70673 1.179133,-1.354796 2.005213,-1.74709 1.027856,-0.488114 2.277344,-0.619325 3.492762,-0.669824 0.08633,-0.0036 0.173128,-0.0051 0.260242,-0.005 z" /><path
       id="path3888"
       style="fill:#000000;fill-opacity:1;stroke:#000000;stroke-width:3.30239;stroke-linecap:round;stroke-dasharray:none;stroke-opacity:1;paint-order:markers fill stroke"
       d="m 121.12414,35.065617 c 0.95925,0.0028 1.9207,0.08257 2.85208,0.292959 2.18522,0.493587 4.42881,1.157359 6.25881,2.449623 1.47073,1.038567 2.6325,2.525066 3.53755,4.081521 0.82198,1.41361 1.30637,3.023846 1.63261,4.626196 0.2901,1.424893 0.40488,2.905783 0.27233,4.353858 -0.13636,1.489733 -0.89404,4.675064 -1.53448,6.026998 -1.55374,3.279831 -2.08969,3.221076 -3.11091,4.498193 -1.64276,2.054447 -3.12438,2.286674 -5.54703,3.311447 -8.85557,3.745905 -28.008881,-0.167816 -28.008881,-0.167816 0,0 0.49048,-4.353448 1.00402,-6.656998 0.55718,-2.499383 1.14853,-5.187179 2.261891,-7.493215 0.9883,-2.046997 1.97815,-4.112877 3.26522,-5.986467 1.34814,-1.962476 2.78005,-3.938999 4.62619,-5.4425 1.70219,-1.386253 3.70139,-2.447116 5.77741,-3.16069 1.80498,-0.620403 3.84941,-0.625713 5.75609,-0.711777 0.31795,-0.01435 0.63734,-0.02224 0.9571,-0.02133 z m -6.80206,12.039773 c -0.60982,7.16e-4 -1.23606,0.08817 -1.85163,0.215454 -1.05463,0.218055 -2.18691,0.408325 -3.17917,0.88812 -1.14127,0.55185 -2.23615,1.272915 -3.16283,2.131778 -1.00498,0.931514 -1.77463,2.064667 -2.49868,3.183442 -0.6913,1.068093 -1.21612,2.206876 -1.73997,3.335612 -0.59015,1.271573 -0.88687,2.688829 -1.16686,4.007571 -0.25813,1.215446 -0.47996,3.468572 -0.47996,3.468572 0,0 10.64812,0.233507 15.50834,-2.476643 1.3296,-0.741401 2.14729,-0.99486 3.0334,-2.187244 0.55087,-0.741208 0.84813,-0.760417 1.67101,-2.566228 0.33913,-0.744355 0.72271,-2.429532 0.78146,-3.197664 0.057,-0.746644 -0.0237,-1.487445 -0.20052,-2.183684 -0.19886,-0.782948 -0.48521,-1.555328 -0.95638,-2.197195 -0.51876,-0.70673 -1.17913,-1.354796 -2.00521,-1.74709 -1.02786,-0.488114 -2.27734,-0.619325 -3.49276,-0.669824 -0.0863,-0.0036 -0.17313,-0.0051 -0.26024,-0.005 z" /><path
       style="fill:#fcd86a;fill-opacity:1;stroke:#000000;stroke-width:2.4;stroke-linecap:round;stroke-dasharray:none;stroke-opacity:1;paint-order:markers fill stroke"
       d="m 49.71606,129.13587 c -1.658221,-0.15225 -3.356526,-0.31532 -4.912052,-0.90963 -1.525323,-0.58277 -3.109856,-1.31749 -4.184342,-2.547 -0.69691,-0.79747 -1.056661,-1.8742 -1.2735,-2.91084 -0.18625,-0.89038 0,-1.81928 0,-2.72892 0,-0.72771 0.151068,-1.47128 0,-2.18314 -0.247971,-1.16849 -0.453826,-2.62378 -1.45542,-3.27469 -0.457639,-0.29741 -1.097344,-0.47918 -1.637342,-0.39989 -0.62641,0.0919 -0.834669,0.35648 -1.36711,0.69905 -0.542124,0.34879 -1.083956,1.64061 -1.725666,1.70205 -1.376567,0.13175 -2.013828,-1.97909 -3.274697,-2.54699 -0.900095,-0.40541 -1.926713,-0.62353 -2.910842,-0.54579 -0.898714,0.0709 -1.796896,0.40956 -2.547,0.90963 -0.750104,0.50008 -1.494191,1.16034 -1.819276,2.00121 -0.437344,1.13126 -0.125646,2.43222 0,3.63856 0.121927,1.17113 0.502969,2.38156 0.983226,3.45663 0.460082,1.02992 0.994236,1.88765 1.745695,2.72892 0.71472,0.80015 1.34724,1.59853 2.10955,2.35348 1.005898,0.9962 2.115713,1.82183 3.251533,2.66691 0.979122,0.72849 2.06317,1.54469 3.14694,2.10579 1.71063,0.88565 3.398709,1.68501 5.136554,2.51599 1.544529,0.73853 3.111397,1.44382 4.730131,2.00121 1.543891,0.5316 3.125689,0.97019 4.730118,1.27348 0.539587,0.10201 1.089056,0.15158 1.637355,0.18194 0.42385,0.0235 1.273487,0 1.273487,0 v -10.18796 c 0,0 -1.09385,0.0499 -1.637342,0 z"
       id="path4203"
       sodipodi:nodetypes="ssssssssssssssssssssssssccs" /><path
       style="fill:#fcd86a;fill-opacity:1;stroke:#000000;stroke-width:2.4;stroke-linecap:round;stroke-dasharray:none;stroke-opacity:1;paint-order:markers fill stroke"
       d="m 142.88809,138.92767 c 1.65822,0.15225 3.35652,0.31532 4.91205,0.90963 1.52532,0.58277 3.10986,1.31749 4.18434,2.547 0.69691,0.79747 1.05666,1.8742 1.2735,2.91084 0.18625,0.89038 0,1.81928 0,2.72892 0,0.72771 -0.15107,1.47128 0,2.18314 0.24797,1.16849 0.45383,2.62378 1.45542,3.27469 0.45764,0.29741 1.09735,0.47918 1.63734,0.39989 0.62641,-0.0919 0.83467,-0.35648 1.36711,-0.69905 0.54213,-0.34879 1.08396,-1.64061 1.72567,-1.70205 1.37657,-0.13175 2.01383,1.97909 3.2747,2.54699 0.90009,0.40541 1.92671,0.62353 2.91084,0.54579 0.89871,-0.0709 1.7969,-0.40956 2.547,-0.90963 0.7501,-0.50008 1.49419,-1.16034 1.81928,-2.00121 0.43734,-1.13126 0.12564,-2.43222 0,-3.63856 -0.12193,-1.17113 -0.50297,-2.38156 -0.98323,-3.45663 -0.46008,-1.02992 -0.99424,-1.88765 -1.7457,-2.72892 -0.71472,-0.80015 -1.34724,-1.59853 -2.10955,-2.35348 -1.00589,-0.9962 -2.11571,-1.82183 -3.25153,-2.66691 -0.97912,-0.72849 -2.06317,-1.54469 -3.14694,-2.10579 -1.71063,-0.88565 -3.39871,-1.68501 -5.13655,-2.51599 -1.54453,-0.73853 -3.1114,-1.44382 -4.73013,-2.00121 -1.54389,-0.5316 -3.12569,-0.97019 -4.73012,-1.27348 -0.53959,-0.10201 -1.08906,-0.15158 -1.63736,-0.18194 -0.42385,-0.0235 -1.27348,0 -1.27348,0 v 10.18796 c 0,0 1.09385,-0.0499 1.63734,0 z"
       id="path4205"
       sodipodi:nodetypes="ssssssssssssssssssssssssccs" /><path
       style="fill:#fcd86a;fill-opacity:1;stroke:#000000;stroke-width:2.4;stroke-linecap:round;stroke-dasharray:none;stroke-opacity:1;paint-order:markers fill stroke"
       d="m 78.770462,165.03899 -2.884648,12.44004 c 0,0 -1.660984,-0.57706 -2.524052,-0.72117 -1.127804,-0.18831 -3.202884,-0.61323 -4.341025,-0.5034 -1.479838,0.14279 -2.385503,0.32888 -3.411463,1.40486 -0.634393,0.66532 -0.682658,1.79605 -0.540874,2.70434 0.190865,1.22267 0.916502,2.38176 1.802913,3.24523 1.11677,1.08787 2.69861,1.58579 4.146675,2.16348 1.625462,0.64847 3.314998,1.19959 5.048117,1.44232 1.368868,0.19172 2.76505,0.41757 4.146674,0.37697 1.022975,-0.0301 2.694481,-0.0871 3.603473,-0.55726 0.683566,-0.35362 0.903784,-1.8029 0.903784,-1.8029 l 5.228422,-20.73337 z"
       id="path4207"
       sodipodi:nodetypes="ccsssssssssccc" /><path
       style="fill:#fcd86a;fill-opacity:1;stroke:#000000;stroke-width:2.4;stroke-linecap:round;stroke-dasharray:none;stroke-opacity:1;paint-order:markers fill stroke"
       d="m 107.54825,164.5822 -2.88465,12.44004 c 0,0 -1.66099,-0.57706 -2.52405,-0.72117 -1.12781,-0.18831 -3.202888,-0.61323 -4.341029,-0.5034 -1.479838,0.14279 -2.385503,0.32888 -3.411463,1.40486 -0.634393,0.66532 -0.682658,1.79605 -0.540874,2.70434 0.190865,1.22267 0.916502,2.38176 1.802913,3.24523 1.11677,1.08787 2.69861,1.58579 4.146675,2.16348 1.625458,0.64847 3.314998,1.19959 5.048118,1.44232 1.36887,0.19172 2.76505,0.41757 4.14667,0.37697 1.02298,-0.0301 2.69448,-0.0871 3.60348,-0.55726 0.68356,-0.35362 0.90378,-1.8029 0.90378,-1.8029 l 5.22842,-20.73337 z"
       id="path4209"
       sodipodi:nodetypes="ccsssssssssccc" /><rect
       style="fill:#000000;fill-opacity:1;stroke:none;stroke-width:1.2161;stroke-linecap:round;paint-order:markers fill stroke"
       id="rect11447"
       width="15.033797"
       height="27.776848"
       x="89.019371"
       y="66.047737"
       ry="1.5414665" /></g></svg>
