<?xml version="1.0" encoding="UTF-8" standalone="no"?>
<!-- Created with Inkscape (http://www.inkscape.org/) -->

<svg
   width="120.3196mm"
   height="155.66565mm"
   viewBox="0 0 120.3196 155.66565"
   version="1.1"
   id="svg29471"
   inkscape:version="1.2.2 (b0a8486, 2022-12-01)"
   sodipodi:docname="occasion.svg"
   xmlns:inkscape="http://www.inkscape.org/namespaces/inkscape"
   xmlns:sodipodi="http://sodipodi.sourceforge.net/DTD/sodipodi-0.dtd"
   xmlns="http://www.w3.org/2000/svg"
   xmlns:svg="http://www.w3.org/2000/svg">
  <sodipodi:namedview
     id="namedview29473"
     pagecolor="#ffffff"
     bordercolor="#000000"
     borderopacity="0.25"
     inkscape:showpageshadow="2"
     inkscape:pageopacity="0.0"
     inkscape:pagecheckerboard="0"
     inkscape:deskcolor="#d1d1d1"
     inkscape:document-units="mm"
     showgrid="false"
     inkscape:zoom="0.76119337"
     inkscape:cx="78.823598"
     inkscape:cy="434.18665"
     inkscape:window-width="1309"
     inkscape:window-height="619"
     inkscape:window-x="43"
     inkscape:window-y="135"
     inkscape:window-maximized="0"
     inkscape:current-layer="layer1" />
  <defs
     id="defs29468" />
  <g
     inkscape:label="Layer 1"
     inkscape:groupmode="layer"
     id="layer1"
     transform="translate(-25.803665,-92.202942)">
    <rect
       style="fill:#fcd86a;fill-opacity:1;stroke:#000000;stroke-width:2.248;stroke-linecap:round;stroke-dasharray:none;stroke-opacity:1;paint-order:markers fill stroke"
       id="rect234"
       width="88.859673"
       height="79.590439"
       x="44.184483"
       y="142.27708"
       ry="10.033061" />
    <ellipse
       style="fill:#000000;fill-opacity:1;stroke:#000000;stroke-width:2.4;stroke-linecap:round;stroke-dasharray:none;stroke-opacity:1;paint-order:markers fill stroke"
       id="path3036"
       cx="73.860001"
       cy="184.02977"
       rx="3.9356844"
       ry="6.149507" />
    <ellipse
       style="fill:#000000;fill-opacity:1;stroke:#000000;stroke-width:2.4;stroke-linecap:round;stroke-dasharray:none;stroke-opacity:1;paint-order:markers fill stroke"
       id="ellipse3298"
       cx="105.34549"
       cy="183.5378"
       rx="3.9356844"
       ry="6.149507" />
    <path
       sodipodi:type="spiral"
       style="fill:none;fill-rule:evenodd;stroke:#000000;stroke-width:2;stroke-dasharray:none"
       id="path3353"
       sodipodi:cx="75.269966"
       sodipodi:cy="146.60425"
       sodipodi:expansion="1"
       sodipodi:revolution="1.5063983"
       sodipodi:radius="8.4066257"
       sodipodi:argument="-12.247802"
       sodipodi:t0="0.80031735"
       d="m 75.003778,153.32695 c -4.115336,0.37835 -7.572639,-3.04181 -7.850573,-7.04409 -0.06129,-0.88264 0.02353,-1.77405 0.245392,-2.63038"
       transform="rotate(-52.346396,129.67877,153.65528)"
       inkscape:transform-center-x="-0.24092901"
       inkscape:transform-center-y="-0.64824413" />
    <rect
       style="fill:#fcd86a;fill-opacity:1;stroke:#000000;stroke-width:2.4;stroke-linecap:round;stroke-dasharray:none;stroke-opacity:1;paint-order:markers fill stroke"
       id="rect3377"
       width="106.83047"
       height="28.25802"
       x="34.677986"
       y="125.23318"
       ry="3.5621674" />
    <path
       id="path3482"
       style="fill:#000000;fill-opacity:1;stroke:#000000;stroke-width:3.30239;stroke-linecap:round;stroke-dasharray:none;stroke-opacity:1;paint-order:markers fill stroke"
       d="m 64.396451,94.123115 c -0.959249,0.0028 -1.9207,0.08257 -2.852084,0.292959 -2.185221,0.493587 -4.428812,1.157359 -6.258806,2.449623 -1.470734,1.038567 -2.632502,2.525066 -3.53755,4.081523 -0.82198,1.41361 -1.306372,3.02384 -1.632607,4.62619 -0.290102,1.4249 -0.404887,2.90579 -0.272338,4.35386 0.136362,1.48974 0.894041,4.67507 1.534485,6.027 1.553734,3.27984 2.089685,3.22108 3.110909,4.4982 1.642762,2.05444 3.12438,2.28667 5.547029,3.31145 8.855574,3.7459 28.00888,-0.16782 28.00888,-0.16782 0,0 -0.49048,-4.35345 -1.00402,-6.657 -0.55718,-2.49939 -1.14852,-5.18718 -2.26188,-7.49322 -0.9883,-2.047 -1.97815,-4.11288 -3.26523,-5.98647 -1.34814,-1.96247 -2.78006,-3.938995 -4.62619,-5.442496 -1.70219,-1.386253 -3.70139,-2.447116 -5.777411,-3.16069 -1.804978,-0.620403 -3.849407,-0.625713 -5.756085,-0.711777 -0.317952,-0.01435 -0.637348,-0.02224 -0.957102,-0.02133 z m 6.802062,12.039775 c 0.609815,7.1e-4 1.236059,0.0882 1.851625,0.21545 1.054631,0.21806 2.186911,0.40833 3.179171,0.88812 1.14127,0.55185 2.23615,1.27292 3.16283,2.13178 1.00498,0.93151 1.77463,2.06467 2.49868,3.18344 0.6913,1.06809 1.21613,2.20688 1.73997,3.33561 0.59016,1.27158 0.88689,2.68884 1.16686,4.00758 0.25813,1.21544 0.47997,3.46857 0.47997,3.46857 0,0 -10.64813,0.23351 -15.508354,-2.47664 -1.329598,-0.7414 -2.147284,-0.99486 -3.033399,-2.18725 -0.550867,-0.7412 -0.848123,-0.76041 -1.671011,-2.56623 -0.339128,-0.74435 -0.722701,-2.42953 -0.781456,-3.19766 -0.05695,-0.74665 0.02371,-1.48745 0.200524,-2.18369 0.198859,-0.78294 0.485204,-1.55532 0.956373,-2.19719 0.518765,-0.70673 1.179133,-1.3548 2.005213,-1.74709 1.027856,-0.48812 2.277344,-0.61933 3.492762,-0.66983 0.08633,-0.004 0.173128,-0.005 0.260242,-0.005 z" />
    <path
       id="path3888"
       style="fill:#000000;fill-opacity:1;stroke:#000000;stroke-width:3.30239;stroke-linecap:round;stroke-dasharray:none;stroke-opacity:1;paint-order:markers fill stroke"
       d="m 113.66184,93.854208 c 0.95925,0.0028 1.9207,0.08257 2.85208,0.292959 2.18522,0.493587 4.42881,1.157359 6.25881,2.449623 1.47073,1.038567 2.6325,2.525066 3.53755,4.08152 0.82198,1.41361 1.30637,3.02385 1.63261,4.6262 0.2901,1.42489 0.40488,2.90578 0.27233,4.35386 -0.13636,1.48973 -0.89404,4.67506 -1.53448,6.02699 -1.55374,3.27983 -2.08969,3.22108 -3.11091,4.4982 -1.64276,2.05444 -3.12438,2.28667 -5.54703,3.31144 -8.85557,3.74591 -28.008881,-0.16781 -28.008881,-0.16781 0,0 0.49048,-4.35345 1.00402,-6.657 0.55718,-2.49938 1.14853,-5.18718 2.26189,-7.49322 0.9883,-2.04699 1.97815,-4.11287 3.26522,-5.98646 1.34814,-1.96248 2.78005,-3.939002 4.626191,-5.442503 1.70219,-1.386253 3.70139,-2.447116 5.77741,-3.16069 1.80498,-0.620403 3.84941,-0.625713 5.75609,-0.711777 0.31795,-0.01435 0.63734,-0.02224 0.9571,-0.02133 z m -6.80206,12.039772 c -0.60982,7.2e-4 -1.23606,0.0882 -1.85163,0.21545 -1.05463,0.21806 -2.18691,0.40833 -3.17917,0.88813 -1.14127,0.55185 -2.236151,1.27291 -3.162831,2.13177 -1.00498,0.93152 -1.77463,2.06467 -2.49868,3.18344 -0.6913,1.0681 -1.21612,2.20688 -1.73997,3.33562 -0.59015,1.27157 -0.88687,2.68883 -1.16686,4.00757 -0.25813,1.21544 -0.47996,3.46857 -0.47996,3.46857 0,0 10.648121,0.23351 15.508341,-2.47664 1.3296,-0.7414 2.14729,-0.99486 3.0334,-2.18725 0.55087,-0.74121 0.84813,-0.76041 1.67101,-2.56623 0.33913,-0.74435 0.72271,-2.42953 0.78146,-3.19766 0.057,-0.74664 -0.0237,-1.48744 -0.20052,-2.18368 -0.19886,-0.78295 -0.48521,-1.55533 -0.95638,-2.1972 -0.51876,-0.70673 -1.17913,-1.35479 -2.00521,-1.74709 -1.02786,-0.48811 -2.27734,-0.61932 -3.49276,-0.66982 -0.0863,-0.004 -0.17313,-0.005 -0.26024,-0.005 z" />
    <path
       style="fill:#fcd86a;fill-opacity:1;stroke:#000000;stroke-width:2.21902;stroke-linecap:round;stroke-dasharray:none;stroke-opacity:1;paint-order:markers fill stroke"
       d="m 132.84522,200.47882 c 0.0885,1.77232 0.0232,1.18853 0.1464,3.09606 0.10914,1.69047 1.29729,3.23315 1.26705,4.74453 -0.0196,0.98028 -0.44074,1.82497 -0.93411,2.53151 -0.42375,0.60686 -1.12422,0.92641 -1.68633,1.38961 -0.44969,0.37057 -1.01173,0.62474 -1.34907,1.1117 -0.55369,0.79932 -1.31322,1.70999 -1.03542,2.86667 0.12693,0.5285 0.44894,1.14813 0.86456,1.55267 0.48211,0.46931 0.78699,0.50618 1.36017,0.77042 0.58362,0.26906 1.74977,0.0577 2.22342,0.5551 1.01603,1.06709 0.14432,2.66702 0.64945,3.99506 0.3606,0.94804 0.92282,1.90496 1.63904,2.67622 0.65402,0.70435 1.47309,1.27194 2.29139,1.63532 0.8183,0.36338 1.7315,0.64023 2.47183,0.47989 0.99599,-0.21572 1.58829,-1.13501 2.24844,-1.85282 0.64091,-0.69681 1.13018,-1.62713 1.46845,-2.57027 0.32406,-0.90353 0.49143,-1.7804 0.50109,-2.82792 0.009,-0.99633 0.0731,-1.92403 0.0221,-2.93654 -0.0674,-1.33606 -0.31067,-2.67088 -0.55962,-4.03704 -0.21461,-1.17767 -0.44624,-2.48647 -0.83535,-3.66513 -0.61414,-1.8604 -1.2663,-3.6583 -1.9327,-5.51329 -0.59228,-1.64864 -1.22028,-3.29876 -1.97488,-4.9163 -0.71972,-1.54274 -1.52266,-3.06935 -2.42457,-4.54571 -0.30329,-0.49653 -0.64574,-0.97449 -0.99924,-1.4417 -0.27326,-0.36117 -3.26293,-3.17081 -3.26293,-3.17081 l -0.22019,7.18823 c 0,0 -0.0487,0.68736 -0.0197,1.26822 z"
       id="path4203"
       sodipodi:nodetypes="ssssssssssssssssssssssssccss" />
    <path
       style="fill:#fcd86a;fill-opacity:1;stroke:#000000;stroke-width:2.4;stroke-linecap:round;stroke-dasharray:none;stroke-opacity:1;paint-order:markers fill stroke"
       d="m 71.308157,223.82758 -2.884648,12.44004 c 0,0 -1.660984,-0.57706 -2.524052,-0.72117 -1.127804,-0.18831 -3.202884,-0.61323 -4.341025,-0.5034 -1.479838,0.14279 -2.385503,0.32888 -3.411463,1.40486 -0.634393,0.66532 -0.682658,1.79605 -0.540874,2.70434 0.190865,1.22267 0.916502,2.38176 1.802913,3.24523 1.11677,1.08787 2.69861,1.58579 4.146675,2.16348 1.625462,0.64847 3.314998,1.19959 5.048117,1.44232 1.368868,0.19172 2.76505,0.41757 4.146674,0.37697 1.022975,-0.0301 2.694485,-0.0871 3.603475,-0.55726 0.68356,-0.35362 0.90378,-1.8029 0.90378,-1.8029 l 5.22842,-20.73337 z"
       id="path4207"
       sodipodi:nodetypes="ccsssssssssccc" />
    <path
       style="fill:#fcd86a;fill-opacity:1;stroke:#000000;stroke-width:2.4;stroke-linecap:round;stroke-dasharray:none;stroke-opacity:1;paint-order:markers fill stroke"
       d="m 110.56546,222.37699 3.2156,12.35863 c 0,0 1.645,-0.62118 2.50391,-0.78827 1.12238,-0.21834 3.18538,-0.69848 4.32605,-0.61906 1.48312,0.10324 2.39344,0.2651 3.44775,1.31332 0.65191,0.64815 0.73033,1.77719 0.61284,2.68894 -0.15816,1.22733 -0.85261,2.40537 -1.71566,3.29219 -1.08734,1.11728 -2.65533,1.65724 -4.08747,2.27336 -1.60758,0.69162 -3.28181,1.28763 -5.00783,1.57653 -1.36327,0.22818 -2.75292,0.49121 -4.13514,0.48749 -1.02342,-0.003 -2.69584,-0.0152 -3.61706,-0.4609 -0.69276,-0.33525 -0.95157,-1.77814 -0.95157,-1.77814 l -5.779858,-20.58645 z"
       id="path4209"
       sodipodi:nodetypes="ccsssssssssccc" />
    <rect
       style="fill:#000000;fill-opacity:1;stroke:none;stroke-width:1.2161;stroke-linecap:round;paint-order:markers fill stroke"
       id="rect11447"
       width="15.033797"
       height="27.776848"
       x="81.557068"
       y="124.83633"
       ry="1.5414665" />
    <path
       style="fill:#8a4503;fill-opacity:1;stroke:#000000;stroke-width:3.05291;stroke-linecap:round;stroke-dasharray:none;stroke-opacity:1;paint-order:markers fill stroke"
       d="m 93.68579,215.30937 0.30528,1.78329 c 0,0 2.00673,-0.82395 3.05452,-1.04559 1.3692,-0.28961 3.88587,-0.92646 5.27735,-0.82113 1.80927,0.13695 2.91977,0.35164 4.20593,1.74202 0.79528,0.85971 0.89094,2.3573 0.7476,3.56666 -0.19293,1.62796 -1.04009,3.19054 -2.09292,4.36683 -1.32647,1.48198 -3.23925,2.1982 -4.98633,3.01543 -1.96108,0.91737 -4.00349,1.70794 -6.10906,2.09114 -1.66306,0.30266 -3.3583,0.65155 -5.04447,0.64662 -1.24848,-0.004 -3.28867,-0.0202 -4.41247,-0.61135 -0.8451,-0.44469 -1.16081,-2.35857 -1.16081,-2.35857 l -2.57213,-8.3889 z"
       id="path29724"
       sodipodi:nodetypes="ccsssssssssccc" />
    <path
       style="fill:#8a4503;fill-opacity:1;stroke:#000000;stroke-width:3.05291;stroke-linecap:round;stroke-dasharray:none;stroke-opacity:1;paint-order:markers fill stroke"
       d="m 66.779028,230.72163 -0.270511,1.78889 c 0,0 -2.022371,-0.78478 -3.074297,-0.98593 -1.374577,-0.2629 -3.903166,-0.85065 -5.292334,-0.71825 -1.806262,0.17215 -2.912372,0.40841 -4.171227,1.82356 -0.778395,0.87503 -0.844889,2.37419 -0.678034,3.58054 0.22458,1.62389 1.101997,3.16968 2.177523,4.32526 1.355064,1.45588 3.281421,2.13474 5.044078,2.9178 1.978564,0.87903 4.035975,1.62969 6.148606,1.97184 1.668637,0.27023 3.370345,0.58606 5.056099,0.54831 1.248167,-0.0283 3.287654,-0.0842 4.399735,-0.69713 0.836285,-0.46105 1.114681,-2.38071 1.114681,-2.38071 l 2.40836,-8.43738 z"
       id="path30089"
       sodipodi:nodetypes="ccsssssssssccc" />
    <ellipse
       style="fill:#8a4503;fill-opacity:1;stroke:#ffffff;stroke-width:1.065;stroke-linecap:round;stroke-dasharray:none;stroke-opacity:1;paint-order:markers fill stroke"
       id="path30871"
       cx="58.828541"
       cy="236.23796"
       rx="1.3584874"
       ry="0.35057741" />
    <path
       style="fill:#fcd86a;fill-opacity:1;stroke:#000000;stroke-width:2.23997;stroke-linecap:round;stroke-dasharray:none;stroke-opacity:1;paint-order:markers fill stroke"
       d="m 69.507823,200.15079 c 0.488704,1.78354 0.994687,3.60907 1.799264,5.21094 0.788954,1.57074 1.707682,3.18207 2.891323,4.15934 0.767712,0.63386 1.673895,0.85613 2.517274,0.92895 0.724396,0.0626 1.394762,-0.28703 2.092138,-0.43054 0.557899,-0.11481 1.094075,-0.3968 1.673707,-0.34444 0.951454,0.0859 2.113333,0.0807 2.837038,1.06986 0.330673,0.45193 0.613524,1.12057 0.673872,1.72171 0.07009,0.69731 -0.08606,0.96608 -0.229253,1.60052 -0.145783,0.64598 -1.014612,1.44042 -0.917764,2.14962 0.207796,1.52133 1.969028,1.88296 2.687249,3.16779 0.512729,0.91718 0.910241,2.00185 1.071407,3.08689 0.147241,0.99083 0.0891,2.02334 -0.126012,2.91989 -0.21512,0.89655 -0.554392,1.81183 -1.126118,2.29886 -0.769179,0.65521 -1.836492,0.52069 -2.789515,0.57406 -0.925208,0.0519 -1.938658,-0.17253 -2.8706,-0.52643 -0.892802,-0.33903 -1.670208,-0.78597 -2.483734,-1.47238 -0.773773,-0.65284 -1.527738,-1.21637 -2.277535,-1.92823 -0.989382,-0.93931 -1.871317,-2.01882 -2.773994,-3.12361 -0.778138,-0.95237 -1.647054,-2.00527 -2.320348,-3.09813 -1.062717,-1.72496 -2.054226,-3.43896 -3.081146,-5.20221 -0.912672,-1.56711 -1.80487,-3.16383 -2.595316,-4.8404 -0.753883,-1.59906 -1.444973,-3.25412 -2.037405,-4.9552 -0.199205,-0.5721 -0.360509,-1.16323 -0.506779,-1.75613 -0.113102,-0.45831 -0.285674,-1.38817 -0.285674,-1.38817 l 7.810625,-1.60736 c 0,0 0.207081,1.20025 0.367296,1.7848 z"
       id="path4205"
       sodipodi:nodetypes="ssssssssssssssssssssssssccs" />
    <ellipse
       style="fill:#8a4503;fill-opacity:1;stroke:#ffffff;stroke-width:1.065;stroke-linecap:round;stroke-dasharray:none;stroke-opacity:1;paint-order:markers fill stroke"
       id="ellipse31615"
       cx="40.001991"
       cy="237.45277"
       rx="1.3584874"
       ry="0.35057741"
       transform="rotate(-14.981853)" />
  </g>
</svg>
