<?xml version="1.0" encoding="UTF-8" standalone="no"?>
<!-- Created with Inkscape (http://www.inkscape.org/) -->

<svg
   width="210mm"
   height="297mm"
   viewBox="0 0 210 297"
   version="1.1"
   id="svg40551"
   inkscape:version="1.2.2 (b0a8486, 2022-12-01)"
   sodipodi:docname="walk2.svg"
   xmlns:inkscape="http://www.inkscape.org/namespaces/inkscape"
   xmlns:sodipodi="http://sodipodi.sourceforge.net/DTD/sodipodi-0.dtd"
   xmlns="http://www.w3.org/2000/svg"
   xmlns:svg="http://www.w3.org/2000/svg">
  <sodipodi:namedview
     id="namedview40553"
     pagecolor="#ffffff"
     bordercolor="#000000"
     borderopacity="0.25"
     inkscape:showpageshadow="2"
     inkscape:pageopacity="0.0"
     inkscape:pagecheckerboard="0"
     inkscape:deskcolor="#d1d1d1"
     inkscape:document-units="mm"
     showgrid="false"
     inkscape:zoom="0.26488392"
     inkscape:cx="-37.752387"
     inkscape:cy="419.05149"
     inkscape:window-width="1309"
     inkscape:window-height="456"
     inkscape:window-x="0"
     inkscape:window-y="37"
     inkscape:window-maximized="0"
     inkscape:current-layer="layer1" />
  <defs
     id="defs40548" />
  <g
     inkscape:label="Layer 1"
     inkscape:groupmode="layer"
     id="layer1">
    <rect
       style="fill:#fcd86a;fill-opacity:1;stroke:#000000;stroke-width:2.248;stroke-linecap:round;stroke-dasharray:none;stroke-opacity:1;paint-order:markers fill stroke"
       id="rect234"
       width="88.859673"
       height="79.590439"
       x="63.225246"
       y="100.73071"
       ry="10.033061" />
    <path
       style="fill:#fcd86a;fill-opacity:1;stroke:#000000;stroke-width:2.4;stroke-linecap:round;stroke-dasharray:none;stroke-opacity:1;paint-order:markers fill stroke"
       d="m 125.70455,180.94279 0.80252,12.22951 c 0,0 -1.7567,-0.0767 -2.62485,0.0326 -1.13446,0.14289 -3.24426,0.33065 -4.30315,0.76214 -1.3768,0.56101 -2.19112,0.99892 -2.86557,2.32384 -0.41705,0.81926 -0.13914,1.91637 0.25706,2.74589 0.53335,1.11665 1.5608,2.01908 2.65753,2.59221 1.38176,0.72207 3.03995,0.74564 4.59285,0.88398 1.74313,0.15529 3.51975,0.19895 5.24972,-0.0653 1.36638,-0.20873 2.7687,-0.39259 4.0807,-0.82755 0.97142,-0.32209 2.55643,-0.85585 3.2925,-1.56686 0.5535,-0.53473 0.34902,-1.98631 0.34902,-1.98631 l -0.54798,-16.98136 z"
       id="path4209"
       sodipodi:nodetypes="ccsssssssssccc" />
    <ellipse
       style="fill:#000000;fill-opacity:1;stroke:#000000;stroke-width:2.4;stroke-linecap:round;stroke-dasharray:none;stroke-opacity:1;paint-order:markers fill stroke"
       id="path3036"
       cx="92.900757"
       cy="142.48338"
       rx="3.9356844"
       ry="6.149507" />
    <ellipse
       style="fill:#000000;fill-opacity:1;stroke:#000000;stroke-width:2.4;stroke-linecap:round;stroke-dasharray:none;stroke-opacity:1;paint-order:markers fill stroke"
       id="ellipse3298"
       cx="124.38623"
       cy="141.99141"
       rx="3.9356844"
       ry="6.149507" />
    <path
       sodipodi:type="spiral"
       style="fill:none;fill-rule:evenodd;stroke:#000000;stroke-width:2;stroke-dasharray:none"
       id="path3353"
       sodipodi:cx="75.269966"
       sodipodi:cy="146.60425"
       sodipodi:expansion="1"
       sodipodi:revolution="1.5063983"
       sodipodi:radius="8.4066257"
       sodipodi:argument="-12.247802"
       sodipodi:t0="0.80031735"
       d="m 75.003778,153.32695 c -4.115336,0.37835 -7.572639,-3.04181 -7.850573,-7.04409 -0.06129,-0.88264 0.02353,-1.77405 0.245392,-2.63038"
       transform="rotate(-52.346396,96.932557,113.51125)"
       inkscape:transform-center-x="-0.24092901"
       inkscape:transform-center-y="-0.64824413" />
    <rect
       style="fill:#fcd86a;fill-opacity:1;stroke:#000000;stroke-width:2.4;stroke-linecap:round;stroke-dasharray:none;stroke-opacity:1;paint-order:markers fill stroke"
       id="rect3377"
       width="106.83047"
       height="28.25802"
       x="53.718746"
       y="78.704544"
       ry="3.5621674" />
    <path
       id="path3482"
       style="fill:#000000;fill-opacity:1;stroke:#000000;stroke-width:3.43855;stroke-linecap:round;stroke-dasharray:none;stroke-opacity:1;paint-order:markers fill stroke"
       d="m 84.860698,42.717494 c -0.9119,0.0032 -1.825891,0.09417 -2.711298,0.334107 -2.077355,0.562915 -4.210198,1.319918 -5.949867,2.793691 -1.398133,1.184441 -2.502557,2.87973 -3.362932,4.6548 -0.781407,1.612162 -1.241887,3.448567 -1.552014,5.275979 -0.27579,1.62503 -0.384904,3.313922 -0.258897,4.965389 0.129629,1.698978 0.84991,5.331712 1.458737,6.873535 1.477045,3.74051 1.98654,3.673509 2.957351,5.129998 1.561672,2.343013 2.970158,2.607861 5.273223,3.776568 8.418449,4.272044 26.626329,-0.191392 26.626329,-0.191392 0,0 -0.46626,-4.964912 -0.95446,-7.592022 -0.52967,-2.85044 -1.09182,-5.915756 -2.15022,-8.545692 -0.93952,-2.334513 -1.88051,-4.690561 -3.10406,-6.827311 -1.2816,-2.238119 -2.642839,-4.49226 -4.397842,-6.206939 -1.618167,-1.580962 -3.518685,-2.790831 -5.49223,-3.604632 -1.715884,-0.707543 -3.659399,-0.713599 -5.471963,-0.811751 -0.302255,-0.01637 -0.60588,-0.02537 -0.909857,-0.02432 z m 6.466303,13.730847 c 0.579719,8.17e-4 1.175047,0.100554 1.760231,0.245717 1.002573,0.248681 2.078962,0.465676 3.022243,1.012862 1.084936,0.629361 2.125771,1.451706 3.006709,2.431202 0.955376,1.062352 1.687036,2.354665 2.375346,3.63058 0.65718,1.218114 1.1561,2.516848 1.65408,3.804123 0.56103,1.450175 0.84311,3.066496 1.10926,4.570463 0.24539,1.386169 0.45628,3.955768 0.45628,3.955768 0,0 -10.122526,0.266296 -14.74284,-2.824514 -1.263969,-0.845535 -2.041297,-1.134595 -2.883668,-2.494455 -0.523679,-0.845318 -0.806265,-0.867226 -1.588527,-2.926678 -0.32239,-0.848904 -0.687026,-2.770777 -0.742886,-3.646799 -0.05409,-0.851515 0.02253,-1.696368 0.190622,-2.490399 0.189044,-0.892917 0.46126,-1.773785 0.909172,-2.505806 0.493153,-0.805996 1.120927,-1.545087 1.90623,-1.992482 0.977124,-0.556673 2.164928,-0.706314 3.320354,-0.763906 0.08204,-0.0041 0.164584,-0.0058 0.247394,-0.0057 z" />
    <path
       id="path3888"
       style="fill:#000000;fill-opacity:1;stroke:#000000;stroke-width:3.43855;stroke-linecap:round;stroke-dasharray:none;stroke-opacity:1;paint-order:markers fill stroke"
       d="m 131.69431,42.410817 c 0.91189,0.0032 1.82589,0.09417 2.71129,0.334107 2.07736,0.562915 4.2102,1.319919 5.94987,2.79369 1.39813,1.184442 2.50256,2.879731 3.36293,4.654802 0.78141,1.612161 1.24189,3.448567 1.55202,5.275979 0.27578,1.625029 0.3849,3.313921 0.25889,4.965389 -0.12962,1.698976 -0.8499,5.331711 -1.45873,6.873534 -1.47705,3.740507 -1.98655,3.673505 -2.95735,5.129995 -1.56168,2.343012 -2.97016,2.607861 -5.27322,3.776567 -8.41846,4.272036 -26.62633,-0.191392 -26.62633,-0.191392 0,0 0.46626,-4.964912 0.95446,-7.592018 0.52967,-2.85044 1.09183,-5.915756 2.15023,-8.545692 0.93952,-2.334513 1.88051,-4.690561 3.10405,-6.827311 1.2816,-2.23812 2.64282,-4.49226 4.39783,-6.206938 1.61817,-1.580963 3.51869,-2.790832 5.49224,-3.604633 1.71588,-0.707542 3.6594,-0.713599 5.47196,-0.811751 0.30226,-0.01637 0.60588,-0.02537 0.90986,-0.02432 z M 125.228,56.141664 c -0.57972,8.17e-4 -1.17504,0.100555 -1.76023,0.245716 -1.00257,0.248683 -2.07896,0.465678 -3.02224,1.012863 -1.08493,0.629362 -2.12578,1.451706 -3.00671,2.431202 -0.95537,1.062353 -1.68703,2.354665 -2.37535,3.63058 -0.65717,1.218114 -1.15608,2.516848 -1.65408,3.804124 -0.56101,1.450174 -0.84308,3.066491 -1.10925,4.570459 -0.24539,1.386168 -0.45628,3.955767 -0.45628,3.955767 0,0 10.12252,0.266296 14.74283,-2.824513 1.26397,-0.845536 2.0413,-1.134597 2.88367,-2.494455 0.52368,-0.845318 0.80627,-0.867226 1.58853,-2.926674 0.32239,-0.848905 0.68704,-2.770778 0.74288,-3.646799 0.0542,-0.851516 -0.0225,-1.696368 -0.19061,-2.490399 -0.18905,-0.892919 -0.46127,-1.773785 -0.90918,-2.505808 -0.49316,-0.805995 -1.12093,-1.545086 -1.90623,-1.992481 -0.97713,-0.556673 -2.16492,-0.706314 -3.32035,-0.763905 -0.0821,-0.0041 -0.16459,-0.0058 -0.2474,-0.0057 z" />
    <path
       style="fill:#fcd86a;fill-opacity:1;stroke:#000000;stroke-width:2.21902;stroke-linecap:round;stroke-dasharray:none;stroke-opacity:1;paint-order:markers fill stroke"
       d="m 61.864074,156.35246 c -1.77035,0.12192 -3.5835,0.25249 -5.24421,0.72837 -1.628465,0.46664 -3.320146,1.05495 -4.467289,2.03944 -0.744036,0.63856 -1.128114,1.50072 -1.359616,2.33079 -0.198844,0.71295 0,1.45674 0,2.18511 0,0.5827 0.161284,1.17809 0,1.7481 -0.264739,0.93563 -0.484514,2.10092 -1.553836,2.62212 -0.488585,0.23814 -1.171548,0.38369 -1.748061,0.3202 -0.668768,-0.0736 -0.89111,-0.28544 -1.459555,-0.55974 -0.578783,-0.27929 -1.157254,-1.31368 -1.842357,-1.36288 -1.469651,-0.10549 -2.150004,1.58471 -3.496134,2.03944 -0.960961,0.32462 -2.056999,0.49928 -3.107676,0.43703 -0.959486,-0.0568 -1.918403,-0.32795 -2.71923,-0.72837 -0.800827,-0.40042 -1.59523,-0.92911 -1.942297,-1.60241 -0.466918,-0.90583 -0.134142,-1.94754 0,-2.91349 0.130172,-0.93775 0.53698,-1.90697 1.049713,-2.76781 0.491193,-0.82468 1.061467,-1.51149 1.86374,-2.18511 0.76305,-0.6407 1.438341,-1.27999 2.252199,-1.88449 1.073918,-0.79769 2.25878,-1.45879 3.471405,-2.13546 1.045331,-0.58332 2.202683,-1.23688 3.359738,-1.68616 1.826305,-0.70916 3.628533,-1.34923 5.483892,-2.01462 1.648972,-0.59136 3.321793,-1.1561 5.049987,-1.60242 1.648287,-0.42566 3.337047,-0.77685 5.049977,-1.0197 0.57607,-0.0817 1.16269,-0.12138 1.74807,-0.14569 0.45251,-0.0188 1.3596,0 1.3596,0 v 8.15775 c 0,0 -1.16782,-0.0399 -1.74806,0 z"
       id="path4203"
       sodipodi:nodetypes="ssssssssssssssssssssssssccs" />
    <path
       style="fill:#fcd86a;fill-opacity:1;stroke:#000000;stroke-width:2.23997;stroke-linecap:round;stroke-dasharray:none;stroke-opacity:1;paint-order:markers fill stroke"
       d="m 153.8766,155.6255 c 1.84544,0.11917 3.73549,0.2468 5.46665,0.71198 1.69753,0.45615 3.46097,1.03123 4.65677,1.99359 0.77559,0.62419 1.17596,1.46697 1.41728,2.27836 0.20728,0.69692 0,1.42399 0,2.13598 0,0.56959 -0.16812,1.1516 0,1.70878 0.27597,0.9146 0.50507,2.05368 1.61975,2.56316 0.50931,0.23279 1.22124,0.37506 1.8222,0.313 0.69713,-0.0719 0.92891,-0.27902 1.52146,-0.54716 0.60334,-0.273 1.20635,-1.28413 1.92051,-1.33222 1.53199,-0.10312 2.2412,1.54907 3.64443,1.99357 1.00171,0.31733 2.14424,0.48805 3.23949,0.4272 1.00017,-0.0555 1.99977,-0.32057 2.83456,-0.71198 0.83479,-0.39142 1.6629,-0.90822 2.02469,-1.56638 0.48672,-0.88546 0.13982,-1.90375 0,-2.84797 -0.1357,-0.91667 -0.55976,-1.86409 -1.09424,-2.70557 -0.51203,-0.80614 -1.1065,-1.4775 -1.9428,-2.13597 -0.79541,-0.6263 -1.49935,-1.2512 -2.34773,-1.84212 -1.11946,-0.77974 -2.35458,-1.42598 -3.61864,-2.08744 -1.08967,-0.5702 -2.29611,-1.20905 -3.50225,-1.64824 -1.90376,-0.69321 -3.78244,-1.31888 -5.71649,-1.96931 -1.71891,-0.57806 -3.46269,-1.1301 -5.26418,-1.56638 -1.7182,-0.41609 -3.47859,-0.75939 -5.26417,-0.99678 -0.60051,-0.0798 -1.21202,-0.11864 -1.82223,-0.1424 -0.4717,-0.0184 -1.41726,0 -1.41726,0 v 7.9743 c 0,0 1.21735,-0.0391 1.8222,0 z"
       id="path4205"
       sodipodi:nodetypes="ssssssssssssssssssssssssccs" />
    <rect
       style="fill:#000000;fill-opacity:1;stroke:none;stroke-width:1.2161;stroke-linecap:round;paint-order:markers fill stroke"
       id="rect11447"
       width="15.033797"
       height="27.776848"
       x="100.59782"
       y="78.307693"
       ry="1.5414665" />
    <path
       style="fill:#fcd86a;fill-opacity:1;stroke:#000000;stroke-width:2.4;stroke-linecap:round;stroke-dasharray:none;stroke-opacity:1;paint-order:markers fill stroke"
       d="m 88.832139,181.01798 -0.422322,12.1189 c 0,0 -1.741265,-0.24466 -2.615905,-0.219 -1.142925,0.0335 -3.26101,0.0183 -4.356371,0.34633 -1.424218,0.42651 -2.276739,0.78438 -3.075042,2.03859 -0.493623,0.77552 -0.322122,1.89421 -0.0072,2.75788 0.423904,1.16261 1.360162,2.15934 2.396937,2.83491 1.30621,0.85115 2.954511,1.03349 4.487005,1.31998 1.720237,0.3216 3.484494,0.53529 5.231821,0.43798 1.380091,-0.0769 2.793585,-0.1255 4.141224,-0.43275 0.997808,-0.22753 2.626678,-0.60697 3.427478,-1.24418 0.60219,-0.47923 0.53774,-1.94373 0.53774,-1.94373 l 1.11659,-18.13219 z"
       id="path4207"
       sodipodi:nodetypes="ccsssssssssccc" />
  </g>
</svg>
