<?xml version="1.0" encoding="UTF-8" standalone="no"?>
<!-- Created with Inkscape (http://www.inkscape.org/) -->

<svg
   width="154.41582mm"
   height="155.4157mm"
   viewBox="0 0 154.41582 155.4157"
   version="1.1"
   id="svg35980"
   inkscape:version="1.2.2 (b0a8486, 2022-12-01)"
   sodipodi:docname="walk3.svg"
   xmlns:inkscape="http://www.inkscape.org/namespaces/inkscape"
   xmlns:sodipodi="http://sodipodi.sourceforge.net/DTD/sodipodi-0.dtd"
   xmlns="http://www.w3.org/2000/svg"
   xmlns:svg="http://www.w3.org/2000/svg">
  <sodipodi:namedview
     id="namedview35982"
     pagecolor="#ffffff"
     bordercolor="#000000"
     borderopacity="0.25"
     inkscape:showpageshadow="2"
     inkscape:pageopacity="0.0"
     inkscape:pagecheckerboard="0"
     inkscape:deskcolor="#d1d1d1"
     inkscape:document-units="mm"
     showgrid="false"
     inkscape:zoom="0.27709766"
     inkscape:cx="-541.3254"
     inkscape:cy="247.20527"
     inkscape:window-width="1309"
     inkscape:window-height="599"
     inkscape:window-x="115"
     inkscape:window-y="179"
     inkscape:window-maximized="0"
     inkscape:current-layer="layer1" />
  <defs
     id="defs35977" />
  <g
     inkscape:label="Layer 1"
     inkscape:groupmode="layer"
     id="layer1"
     transform="translate(-27.245486,-64.838123)">
    <rect
       style="fill:#fcd86a;fill-opacity:1;stroke:#000000;stroke-width:2.248;stroke-linecap:round;stroke-dasharray:none;stroke-opacity:1;paint-order:markers fill stroke"
       id="rect234"
       width="88.859673"
       height="79.590439"
       x="59.449825"
       y="114.91227"
       ry="10.033061" />
    <ellipse
       style="fill:#000000;fill-opacity:1;stroke:#000000;stroke-width:2.4;stroke-linecap:round;stroke-dasharray:none;stroke-opacity:1;paint-order:markers fill stroke"
       id="path3036"
       cx="89.125336"
       cy="156.66495"
       rx="3.9356844"
       ry="6.149507" />
    <ellipse
       style="fill:#000000;fill-opacity:1;stroke:#000000;stroke-width:2.4;stroke-linecap:round;stroke-dasharray:none;stroke-opacity:1;paint-order:markers fill stroke"
       id="ellipse3298"
       cx="120.61081"
       cy="156.17297"
       rx="3.9356844"
       ry="6.149507" />
    <path
       sodipodi:type="spiral"
       style="fill:none;fill-rule:evenodd;stroke:#000000;stroke-width:2;stroke-dasharray:none"
       id="path3353"
       sodipodi:cx="75.269966"
       sodipodi:cy="146.60425"
       sodipodi:expansion="1"
       sodipodi:revolution="1.5063983"
       sodipodi:radius="8.4066257"
       sodipodi:argument="-12.247802"
       sodipodi:t0="0.80031735"
       d="m 75.003778,153.32695 c -4.115336,0.37835 -7.572639,-3.04181 -7.850573,-7.04409 -0.06129,-0.88264 0.02353,-1.77405 0.245392,-2.63038"
       transform="rotate(-52.346396,109.47225,124.4429)"
       inkscape:transform-center-x="-0.24092901"
       inkscape:transform-center-y="-0.64824413" />
    <rect
       style="fill:#fcd86a;fill-opacity:1;stroke:#000000;stroke-width:2.4;stroke-linecap:round;stroke-dasharray:none;stroke-opacity:1;paint-order:markers fill stroke"
       id="rect3377"
       width="106.83047"
       height="28.25802"
       x="49.943325"
       y="103.30441"
       ry="3.5621674" />
    <path
       id="path3482"
       style="fill:#000000;fill-opacity:1;stroke:#000000;stroke-width:3.02831;stroke-linecap:round;stroke-dasharray:none;stroke-opacity:1;paint-order:markers fill stroke"
       d="m 79.628,77.497049 c -0.966297,0.0023 -1.93481,0.06893 -2.873032,0.244553 -2.201273,0.412031 -4.461345,0.966127 -6.304789,2.044869 -1.481534,0.866963 -2.651839,2.107846 -3.563537,3.407126 -0.828019,1.180038 -1.315967,2.524213 -1.644594,3.861805 -0.292241,1.189456 -0.407864,2.425657 -0.274341,3.634465 0.137362,1.243582 0.900608,3.902597 1.545753,5.03115 1.565154,2.737903 2.105041,2.68886 3.133764,3.754952 1.654828,1.714991 3.147332,1.908851 5.587779,2.764301 8.920625,3.12696 28.214647,-0.14009 28.214647,-0.14009 0,0 -0.49409,-3.634123 -1.0114,-5.557061 -0.56127,-2.086407 -1.15696,-4.330096 -2.27849,-6.255103 C 99.164191,88.579247 98.167069,86.854715 96.870534,85.2907 95.51249,83.652486 94.070051,82.002547 92.210359,80.747471 90.495664,79.59027 88.481778,78.704695 86.390507,78.109025 84.572267,77.591132 82.512818,77.5867 80.592131,77.514856 80.271845,77.502877 79.950109,77.496291 79.628,77.497051 Z m 6.852029,10.050427 c 0.6143,5.98e-4 1.245141,0.0736 1.865233,0.179854 1.062378,0.182026 2.202976,0.340857 3.202525,0.741375 1.149654,0.460667 2.252577,1.06259 3.186065,1.779542 1.012363,0.777599 1.787667,1.72352 2.517036,2.657438 0.696378,0.891611 1.225064,1.842232 1.752752,2.784465 0.594495,1.06147 0.893405,2.244552 1.17544,3.345395 0.26002,1.014615 0.48349,2.895465 0.48349,2.895465 0,0 -10.726356,0.19492 -15.62228,-2.067433 -1.339368,-0.618898 -2.163065,-0.830478 -3.055684,-1.82584 -0.554917,-0.618739 -0.854361,-0.634775 -1.683286,-2.14221 -0.341621,-0.621365 -0.728009,-2.028098 -0.787201,-2.66931 -0.05732,-0.623276 0.02388,-1.241673 0.201994,-1.822872 0.20032,-0.65358 0.488774,-1.298339 0.963405,-1.83415 0.522571,-0.589956 1.187793,-1.130941 2.019941,-1.458416 1.035411,-0.407462 2.29407,-0.516993 3.518419,-0.559148 0.08693,-0.003 0.174402,-0.0043 0.262151,-0.0042 z" />
    <path
       id="path3888"
       style="fill:#000000;fill-opacity:1;stroke:#000000;stroke-width:3.10295;stroke-linecap:round;stroke-dasharray:none;stroke-opacity:1;paint-order:markers fill stroke"
       d="m 128.95178,75.833988 c 0.96437,0.0025 1.93096,0.07251 2.86732,0.257267 2.1969,0.433452 4.45249,1.016355 6.29227,2.15118 1.47859,0.912037 2.64657,2.217432 3.55646,3.584261 0.82637,1.241387 1.31335,2.655445 1.64134,4.062578 0.29165,1.251295 0.40704,2.551765 0.27378,3.823418 -0.13709,1.308236 -0.89882,4.105492 -1.54268,5.292717 -1.56205,2.880243 -2.10086,2.82865 -3.12754,3.950167 -1.65154,1.804154 -3.14108,2.008094 -5.57668,2.908014 -8.90291,3.28952 -28.15861,-0.14737 -28.15861,-0.14737 0,0 0.4931,-3.82306 1.00939,-5.845968 0.56016,-2.194878 1.15467,-4.555215 2.27398,-6.580302 0.99358,-1.797607 1.98872,-3.611797 3.28267,-5.257124 1.35535,-1.723383 2.79492,-3.459102 4.65092,-4.779429 1.71129,-1.217363 3.72118,-2.148979 5.8083,-2.775617 1.81463,-0.544818 3.86999,-0.549481 5.78686,-0.625059 0.31965,-0.0126 0.64075,-0.01953 0.96222,-0.01873 z m -6.83843,10.572943 c -0.61308,6.29e-4 -1.24266,0.07743 -1.86152,0.189205 -1.06027,0.191489 -2.19861,0.358578 -3.19617,0.779918 -1.14737,0.484617 -2.2481,1.117833 -3.17974,1.872059 -1.01035,0.818026 -1.78411,1.813125 -2.51203,2.795597 -0.695,0.937965 -1.22263,1.938008 -1.74928,2.929228 -0.5933,1.116655 -0.89161,2.361242 -1.17309,3.519317 -0.25951,1.067369 -0.48253,3.045995 -0.48253,3.045995 0,0 10.70504,0.20506 15.59124,-2.174914 1.33671,-0.651074 2.15877,-0.873654 3.04962,-1.920764 0.55381,-0.650907 0.85266,-0.667777 1.67994,-2.25358 0.34095,-0.653669 0.72658,-2.133537 0.78564,-2.808086 0.0573,-0.655679 -0.0238,-1.306227 -0.20159,-1.917642 -0.19993,-0.68756 -0.48781,-1.365839 -0.96149,-1.929506 -0.52154,-0.620628 -1.18544,-1.189739 -2.01593,-1.534239 -1.03336,-0.428646 -2.28952,-0.543871 -3.51144,-0.588218 -0.0868,-0.0032 -0.17405,-0.0045 -0.26163,-0.0044 z" />
    <path
       style="fill:#fcd86a;fill-opacity:1;stroke:#000000;stroke-width:2.21902;stroke-linecap:round;stroke-dasharray:none;stroke-opacity:1;paint-order:markers fill stroke"
       d="m 57.557466,181.1999 c -1.77035,0.12192 -3.5835,0.25249 -5.24421,0.72837 -1.628465,0.46664 -3.320146,1.05495 -4.467289,2.03944 -0.744036,0.63856 -1.128114,1.50072 -1.359616,2.33079 -0.198844,0.71295 0,1.45674 0,2.18511 0,0.5827 0.161284,1.17809 0,1.7481 -0.264739,0.93563 -0.484514,2.10092 -1.553836,2.62212 -0.488585,0.23814 -1.171548,0.38369 -1.748061,0.3202 -0.668768,-0.0736 -0.89111,-0.28544 -1.459555,-0.55974 -0.578783,-0.27929 -1.157254,-1.31368 -1.842357,-1.36288 -1.469651,-0.10549 -2.150004,1.58471 -3.496134,2.03944 -0.960961,0.32462 -2.056999,0.49928 -3.107676,0.43703 -0.959486,-0.0568 -1.918403,-0.32795 -2.71923,-0.72837 -0.800827,-0.40042 -1.59523,-0.92911 -1.942297,-1.60241 -0.466918,-0.90583 -0.134142,-1.94754 0,-2.91349 0.130172,-0.93775 0.53698,-1.90697 1.049713,-2.76781 0.491193,-0.82468 1.061467,-1.51149 1.86374,-2.18511 0.76305,-0.6407 1.438341,-1.27999 2.252199,-1.88449 1.073918,-0.79769 2.25878,-1.45879 3.471405,-2.13546 1.045331,-0.58332 2.202683,-1.23688 3.359738,-1.68616 1.826305,-0.70916 3.628533,-1.34923 5.483892,-2.01462 1.648972,-0.59136 3.321793,-1.1561 5.049987,-1.60242 1.648287,-0.42566 3.337047,-0.77685 5.049977,-1.0197 0.57607,-0.0817 1.16269,-0.12138 1.74807,-0.14569 0.45251,-0.0188 1.3596,0 1.3596,0 v 8.15775 c 0,0 -1.16782,-0.0399 -1.74806,0 z"
       id="path4203"
       sodipodi:nodetypes="ssssssssssssssssssssssssccs" />
    <path
       style="fill:#fcd86a;fill-opacity:1;stroke:#000000;stroke-width:2.23997;stroke-linecap:round;stroke-dasharray:none;stroke-opacity:1;paint-order:markers fill stroke"
       d="m 150.10118,180.75905 c 1.84544,0.11917 3.73549,0.2468 5.46665,0.71198 1.69753,0.45615 3.46097,1.03123 4.65677,1.99359 0.77559,0.62419 1.17596,1.46697 1.41728,2.27836 0.20728,0.69692 0,1.42399 0,2.13598 0,0.56959 -0.16812,1.1516 0,1.70878 0.27597,0.9146 0.50507,2.05368 1.61975,2.56316 0.50931,0.23279 1.22124,0.37506 1.8222,0.313 0.69713,-0.0719 0.92891,-0.27902 1.52146,-0.54716 0.60334,-0.273 1.20635,-1.28413 1.92051,-1.33222 1.53199,-0.10312 2.2412,1.54907 3.64443,1.99357 1.00171,0.31733 2.14424,0.48805 3.23949,0.4272 1.00017,-0.0555 1.99977,-0.32057 2.83456,-0.71198 0.83479,-0.39142 1.6629,-0.90822 2.02469,-1.56638 0.48672,-0.88546 0.13982,-1.90375 0,-2.84797 -0.1357,-0.91667 -0.55976,-1.86409 -1.09424,-2.70557 -0.51203,-0.80614 -1.1065,-1.4775 -1.9428,-2.13597 -0.79541,-0.6263 -1.49935,-1.2512 -2.34773,-1.84212 -1.11946,-0.77974 -2.35458,-1.42598 -3.61864,-2.08744 -1.08967,-0.5702 -2.29611,-1.20905 -3.50225,-1.64824 -1.90376,-0.69321 -3.78244,-1.31888 -5.71649,-1.96931 -1.71891,-0.57806 -3.46269,-1.1301 -5.26418,-1.56638 -1.7182,-0.41609 -3.47859,-0.75939 -5.26417,-0.99678 -0.60051,-0.0798 -1.21202,-0.11864 -1.82223,-0.1424 -0.4717,-0.0184 -1.41726,0 -1.41726,0 v 7.9743 c 0,0 1.21735,-0.0391 1.8222,0 z"
       id="path4205"
       sodipodi:nodetypes="ssssssssssssssssssssssssccs" />
    <rect
       style="fill:#000000;fill-opacity:1;stroke:none;stroke-width:1.2161;stroke-linecap:round;paint-order:markers fill stroke"
       id="rect11447"
       width="15.033797"
       height="27.776848"
       x="96.822403"
       y="102.90756"
       ry="1.5414665" />
    <path
       style="fill:#fcd86a;fill-opacity:1;stroke:#000000;stroke-width:2.4;stroke-linecap:round;stroke-dasharray:none;stroke-opacity:1;paint-order:markers fill stroke"
       d="m 80.196768,195.61771 11.888898,-0.77427 -1.040329,1.18119 0.662106,3.57609 c 0,0 3.98206,-2.24591 6.19421,-2.53174 1.00863,-0.13032 2.540917,-0.79808 3.291387,-0.11167 1.76839,1.61748 1.86908,8.05104 1.86908,8.05104 l -0.2437,4.54143 c 0,0 -0.74674,2.03162 -1.46444,2.80425 -0.73305,0.78916 -1.673047,1.61247 -2.746367,1.70257 -1.06244,0.0892 -2.15578,-0.51016 -2.96144,-1.20845 -0.80104,-0.69427 -1.60763,-2.74384 -1.60763,-2.74384 0,0 -0.31503,-1.69895 -0.30532,-2.47098 0.008,-0.632 0.37944,-1.73546 0.37944,-1.73546 0,0 -4.23591,2.30516 -6.56444,2.40899 -0.72204,0.0322 -1.522574,-0.12026 -2.093953,-0.56287 -1.254901,-0.97209 -2.053653,-2.64489 -2.771696,-4.06057 -0.631365,-1.2448 -2.485806,-8.06571 -2.485806,-8.06571 z"
       id="path33380"
       sodipodi:nodetypes="ccccssccssscscsssc" />
    <path
       style="fill:#fcd86a;fill-opacity:1;stroke:#000000;stroke-width:2.4;stroke-linecap:round;stroke-dasharray:none;stroke-opacity:1;paint-order:markers fill stroke"
       d="m 117.27617,194.84051 -7.20994,13.31758 c 0,0 -1.54823,-0.83357 -2.37743,-1.11298 -1.08358,-0.36506 -3.06482,-1.1142 -4.20596,-1.18654 -1.48373,-0.0941 -2.40746,-0.0542 -3.591299,0.84515 -0.73202,0.55611 -0.95927,1.66482 -0.96356,2.58409 -0.006,1.23747 0.52654,2.4971 1.264539,3.49041 0.9298,1.25144 2.41247,1.9943 3.7504,2.79467 1.50182,0.89842 3.08237,1.71091 4.75492,2.22588 1.32104,0.40672 2.66361,0.85147 4.03415,1.03084 1.01477,0.13277 2.6741,0.342 3.64624,0.0222 0.73105,-0.24055 1.17867,-1.63645 1.17867,-1.63645 l 12.11734,-22.05295 z"
       id="path4209"
       sodipodi:nodetypes="ccsssssssssccc" />
  </g>
</svg>
