<?xml version="1.0" encoding="UTF-8" standalone="no"?>
<!-- Created with Inkscape (http://www.inkscape.org/) -->

<svg
   width="210mm"
   height="297mm"
   viewBox="0 0 210 297"
   version="1.1"
   id="svg20645"
   inkscape:version="1.2.2 (b0a8486, 2022-12-01)"
   sodipodi:docname="who.svg"
   xmlns:inkscape="http://www.inkscape.org/namespaces/inkscape"
   xmlns:sodipodi="http://sodipodi.sourceforge.net/DTD/sodipodi-0.dtd"
   xmlns="http://www.w3.org/2000/svg"
   xmlns:svg="http://www.w3.org/2000/svg">
  <sodipodi:namedview
     id="namedview20647"
     pagecolor="#ffffff"
     bordercolor="#000000"
     borderopacity="0.25"
     inkscape:showpageshadow="2"
     inkscape:pageopacity="0.0"
     inkscape:pagecheckerboard="0"
     inkscape:deskcolor="#d1d1d1"
     inkscape:document-units="mm"
     showgrid="false"
     inkscape:zoom="0.33385691"
     inkscape:cx="664.95553"
     inkscape:cy="462.7731"
     inkscape:window-width="1309"
     inkscape:window-height="539"
     inkscape:window-x="0"
     inkscape:window-y="37"
     inkscape:window-maximized="0"
     inkscape:current-layer="layer1" />
  <defs
     id="defs20642" />
  <g
     inkscape:label="Layer 1"
     inkscape:groupmode="layer"
     id="layer1">
    <rect
       style="fill:#fcd86a;fill-opacity:1;stroke:#000000;stroke-width:2.248;stroke-linecap:round;stroke-dasharray:none;stroke-opacity:1;paint-order:markers fill stroke"
       id="rect234"
       width="88.859673"
       height="79.590439"
       x="57.281155"
       y="88.162682"
       ry="10.033061" />
    <ellipse
       style="fill:#000000;fill-opacity:1;stroke:#000000;stroke-width:2.4;stroke-linecap:round;stroke-dasharray:none;stroke-opacity:1;paint-order:markers fill stroke"
       id="path3036"
       cx="86.956673"
       cy="129.91536"
       rx="3.9356844"
       ry="6.149507" />
    <ellipse
       style="fill:#000000;fill-opacity:1;stroke:#000000;stroke-width:2.4;stroke-linecap:round;stroke-dasharray:none;stroke-opacity:1;paint-order:markers fill stroke"
       id="ellipse3298"
       cx="118.44216"
       cy="129.42339"
       rx="3.9356844"
       ry="6.149507" />
    <path
       sodipodi:type="spiral"
       style="fill:none;fill-rule:evenodd;stroke:#000000;stroke-width:2;stroke-dasharray:none"
       id="path3353"
       sodipodi:cx="75.269966"
       sodipodi:cy="146.60425"
       sodipodi:expansion="1"
       sodipodi:revolution="1.5063983"
       sodipodi:radius="8.4066257"
       sodipodi:argument="-12.247802"
       sodipodi:t0="0.80031735"
       d="m 75.003778,153.32695 c -4.115336,0.37835 -7.572639,-3.04181 -7.850573,-7.04409 -0.06129,-0.88264 0.02353,-1.77405 0.245392,-2.63038"
       transform="rotate(-52.346396,81.174611,113.27437)"
       inkscape:transform-center-x="-0.24092901"
       inkscape:transform-center-y="-0.64824413" />
    <rect
       style="fill:#fcd86a;fill-opacity:1;stroke:#000000;stroke-width:2.4;stroke-linecap:round;stroke-dasharray:none;stroke-opacity:1;paint-order:markers fill stroke"
       id="rect3377"
       width="106.83047"
       height="28.25802"
       x="47.774658"
       y="71.118774"
       ry="3.5621674" />
    <path
       id="path3482"
       style="fill:#000000;fill-opacity:1;stroke:#000000;stroke-width:3.30239;stroke-linecap:round;stroke-dasharray:none;stroke-opacity:1;paint-order:markers fill stroke"
       d="m 77.493122,40.008707 c -0.959249,0.0028 -1.9207,0.08257 -2.852084,0.292959 -2.185221,0.493587 -4.428812,1.157359 -6.258806,2.449623 -1.470734,1.038567 -2.632502,2.525066 -3.53755,4.081521 -0.82198,1.41361 -1.306372,3.023846 -1.632607,4.626196 -0.290102,1.424893 -0.404887,2.905783 -0.272338,4.353858 0.136362,1.489733 0.894041,4.675064 1.534485,6.026998 1.553734,3.279835 2.089685,3.22108 3.110909,4.498198 1.642762,2.054446 3.12438,2.286673 5.547029,3.311447 8.855574,3.745904 28.00888,-0.167817 28.00888,-0.167817 0,0 -0.49048,-4.353448 -1.00402,-6.657002 -0.55718,-2.499383 -1.14852,-5.187179 -2.26188,-7.493215 -0.9883,-2.046997 -1.97815,-4.112877 -3.26523,-5.986467 -1.34814,-1.962476 -2.78006,-3.938999 -4.62619,-5.4425 -1.70219,-1.386253 -3.70139,-2.447116 -5.777411,-3.16069 -1.804978,-0.620403 -3.849407,-0.625713 -5.756085,-0.711777 -0.317952,-0.01435 -0.637348,-0.02224 -0.957102,-0.02133 z m 6.802062,12.039773 c 0.609815,7.16e-4 1.236059,0.08817 1.851625,0.215454 1.054631,0.218055 2.186911,0.408325 3.179171,0.88812 1.14127,0.55185 2.23615,1.272915 3.16283,2.131778 1.00498,0.931514 1.77463,2.064667 2.49868,3.183442 0.6913,1.068093 1.21613,2.206876 1.73997,3.335612 0.59016,1.271573 0.88689,2.688833 1.16686,4.007575 0.25813,1.215446 0.47997,3.468572 0.47997,3.468572 0,0 -10.64813,0.233507 -15.508354,-2.476643 -1.329598,-0.741401 -2.147284,-0.99486 -3.033399,-2.187244 -0.550867,-0.741208 -0.848123,-0.760417 -1.671011,-2.566232 -0.339128,-0.744355 -0.722701,-2.429532 -0.781456,-3.197664 -0.05695,-0.746644 0.02371,-1.487445 0.200524,-2.183684 0.198859,-0.782948 0.485204,-1.555328 0.956373,-2.197195 0.518765,-0.70673 1.179133,-1.354796 2.005213,-1.74709 1.027856,-0.488114 2.277344,-0.619325 3.492762,-0.669824 0.08633,-0.0036 0.173128,-0.0051 0.260242,-0.005 z" />
    <path
       id="path3888"
       style="fill:#000000;fill-opacity:1;stroke:#000000;stroke-width:3.30239;stroke-linecap:round;stroke-dasharray:none;stroke-opacity:1;paint-order:markers fill stroke"
       d="m 126.75851,39.7398 c 0.95925,0.0028 1.9207,0.08257 2.85208,0.292959 2.18522,0.493587 4.42881,1.157359 6.25881,2.449623 1.47073,1.038567 2.6325,2.525066 3.53755,4.081521 0.82198,1.41361 1.30637,3.023846 1.63261,4.626196 0.2901,1.424893 0.40488,2.905783 0.27233,4.353858 -0.13636,1.489733 -0.89404,4.675064 -1.53448,6.026998 -1.55374,3.279831 -2.08969,3.221076 -3.11091,4.498193 -1.64276,2.054447 -3.12438,2.286674 -5.54703,3.311447 -8.85557,3.745905 -28.00888,-0.167816 -28.00888,-0.167816 0,0 0.49048,-4.353448 1.00402,-6.656998 0.55718,-2.499383 1.14853,-5.187179 2.26189,-7.493215 0.9883,-2.046997 1.97815,-4.112877 3.26522,-5.986467 1.34814,-1.962476 2.78005,-3.938999 4.62619,-5.4425 1.70219,-1.386253 3.70139,-2.447116 5.77741,-3.16069 1.80498,-0.620403 3.84941,-0.625713 5.75609,-0.711777 0.31795,-0.01435 0.63734,-0.02224 0.9571,-0.02133 z m -6.80206,12.039773 c -0.60982,7.16e-4 -1.23606,0.08817 -1.85163,0.215454 -1.05463,0.218055 -2.18691,0.408325 -3.17917,0.88812 -1.14127,0.55185 -2.23615,1.272915 -3.16283,2.131778 -1.00498,0.931514 -1.77463,2.064667 -2.49868,3.183442 -0.6913,1.068093 -1.21612,2.206876 -1.73997,3.335612 -0.59015,1.271573 -0.88687,2.688829 -1.16686,4.007571 -0.25813,1.215446 -0.47996,3.468572 -0.47996,3.468572 0,0 10.64812,0.233507 15.50834,-2.476643 1.3296,-0.741401 2.14729,-0.99486 3.0334,-2.187244 0.55087,-0.741208 0.84813,-0.760417 1.67101,-2.566228 0.33913,-0.744355 0.72271,-2.429532 0.78146,-3.197664 0.057,-0.746644 -0.0237,-1.487445 -0.20052,-2.183684 -0.19886,-0.782948 -0.48521,-1.555328 -0.95638,-2.197195 -0.51876,-0.70673 -1.17913,-1.354796 -2.00521,-1.74709 -1.02786,-0.488114 -2.27734,-0.619325 -3.49276,-0.669824 -0.0863,-0.0036 -0.17313,-0.0051 -0.26024,-0.005 z" />
    <path
       style="fill:#fcd86a;fill-opacity:1;stroke:#000000;stroke-width:2.21902;stroke-linecap:round;stroke-dasharray:none;stroke-opacity:1;paint-order:markers fill stroke"
       d="m 59.876714,152.82123 c 1.770351,-0.12192 3.583497,-0.25249 5.244209,-0.72837 1.628466,-0.46664 3.320147,-1.05495 4.46729,-2.03944 0.744036,-0.63856 1.128114,-1.50072 1.359616,-2.33079 0.198844,-0.71295 0,-1.45674 0,-2.18511 0,-0.5827 -0.161284,-1.17809 0,-1.7481 0.264739,-0.93563 0.484514,-2.10092 1.553836,-2.62212 0.488585,-0.23814 1.171548,-0.38369 1.748061,-0.3202 0.668768,0.0736 0.89111,0.28544 1.459555,0.55974 0.578783,0.27929 1.157254,1.31368 1.842357,1.36288 1.469651,0.10549 2.150004,-1.58471 3.496134,-2.03944 0.960961,-0.32462 2.056999,-0.49928 3.107676,-0.43703 0.959486,0.0568 1.918403,0.32795 2.71923,0.72837 0.800827,0.40042 1.59523,0.92911 1.942297,1.60241 0.466918,0.90583 0.134142,1.94754 0,2.91349 -0.130172,0.93775 -0.53698,1.90697 -1.049713,2.76781 -0.491193,0.82468 -1.061467,1.51149 -1.86374,2.18511 -0.76305,0.6407 -1.438341,1.27999 -2.252199,1.88449 -1.073918,0.79769 -2.25878,1.45879 -3.471405,2.13546 -1.045331,0.58332 -2.202683,1.23688 -3.359738,1.68616 -1.826305,0.70916 -3.628533,1.34923 -5.483892,2.01462 -1.648972,0.59136 -3.321793,1.1561 -5.049987,1.60242 -1.64829,0.42566 -3.33705,0.77685 -5.049972,1.0197 -0.576074,0.0817 -1.162699,0.12138 -1.748074,0.14569 -0.452511,0.0188 -1.359602,0 -1.359602,0 v -8.15775 c 0,0 1.167817,0.0399 1.748061,0 z"
       id="path4203"
       sodipodi:nodetypes="ssssssssssssssssssssssssccs" />
    <path
       style="fill:#fcd86a;fill-opacity:1;stroke:#000000;stroke-width:2.23997;stroke-linecap:round;stroke-dasharray:none;stroke-opacity:1;paint-order:markers fill stroke"
       d="m 143.46732,153.13675 c -1.84544,-0.11917 -3.73549,-0.2468 -5.46665,-0.71198 -1.69753,-0.45615 -3.46097,-1.03123 -4.65677,-1.99359 -0.77559,-0.62419 -1.17596,-1.46697 -1.41728,-2.27836 -0.20728,-0.69692 0,-1.42399 0,-2.13598 0,-0.56959 0.16812,-1.1516 0,-1.70878 -0.27597,-0.9146 -0.50507,-2.05368 -1.61975,-2.56316 -0.50931,-0.23279 -1.22124,-0.37506 -1.8222,-0.313 -0.69713,0.0719 -0.92891,0.27902 -1.52146,0.54716 -0.60334,0.273 -1.20635,1.28413 -1.92051,1.33222 -1.53199,0.10312 -2.2412,-1.54907 -3.64443,-1.99357 -1.00171,-0.31733 -2.14424,-0.48805 -3.23949,-0.4272 -1.00017,0.0555 -1.99977,0.32057 -2.83456,0.71198 -0.83479,0.39142 -1.6629,0.90822 -2.02469,1.56638 -0.48672,0.88546 -0.13982,1.90375 0,2.84797 0.1357,0.91667 0.55976,1.86409 1.09424,2.70557 0.51203,0.80614 1.1065,1.4775 1.9428,2.13597 0.79541,0.6263 1.49935,1.2512 2.34773,1.84212 1.11946,0.77974 2.35458,1.42598 3.61864,2.08744 1.08967,0.5702 2.29611,1.20905 3.50225,1.64824 1.90376,0.69321 3.78244,1.31888 5.71649,1.96931 1.71891,0.57806 3.46269,1.1301 5.26418,1.56638 1.7182,0.41609 3.47859,0.75939 5.26417,0.99678 0.60051,0.0798 1.21202,0.11864 1.82223,0.1424 0.4717,0.0184 1.41726,0 1.41726,0 v -7.9743 c 0,0 -1.21735,0.0391 -1.8222,0 z"
       id="path4205"
       sodipodi:nodetypes="ssssssssssssssssssssssssccs" />
    <path
       style="fill:#fcd86a;fill-opacity:1;stroke:#000000;stroke-width:2.4;stroke-linecap:round;stroke-dasharray:none;stroke-opacity:1;paint-order:markers fill stroke"
       d="m 84.404828,169.71317 -2.884648,12.44004 c 0,0 -1.660984,-0.57706 -2.524052,-0.72117 -1.127804,-0.18831 -3.202884,-0.61323 -4.341025,-0.5034 -1.479838,0.14279 -2.385503,0.32888 -3.411463,1.40486 -0.634393,0.66532 -0.682658,1.79605 -0.540874,2.70434 0.190865,1.22267 0.916502,2.38176 1.802913,3.24523 1.11677,1.08787 2.69861,1.58579 4.146675,2.16348 1.625462,0.64847 3.314998,1.19959 5.048117,1.44232 1.368868,0.19172 2.76505,0.41757 4.146674,0.37697 1.022975,-0.0301 2.694485,-0.0871 3.603475,-0.55726 0.68356,-0.35362 0.90378,-1.8029 0.90378,-1.8029 l 5.22842,-20.73337 z"
       id="path4207"
       sodipodi:nodetypes="ccsssssssssccc" />
    <path
       style="fill:#fcd86a;fill-opacity:1;stroke:#000000;stroke-width:2.4;stroke-linecap:round;stroke-dasharray:none;stroke-opacity:1;paint-order:markers fill stroke"
       d="m 113.18262,169.25638 -2.88465,12.44004 c 0,0 -1.66099,-0.57706 -2.52405,-0.72117 -1.12781,-0.18831 -3.20289,-0.61323 -4.34103,-0.5034 -1.47984,0.14279 -2.38551,0.32888 -3.41147,1.40486 -0.63439,0.66532 -0.68265,1.79605 -0.54087,2.70434 0.19086,1.22267 0.9165,2.38176 1.80291,3.24523 1.11677,1.08787 2.69861,1.58579 4.14668,2.16348 1.62546,0.64847 3.315,1.19959 5.04812,1.44232 1.36887,0.19172 2.76505,0.41757 4.14667,0.37697 1.02298,-0.0301 2.69448,-0.0871 3.60348,-0.55726 0.68356,-0.35362 0.90378,-1.8029 0.90378,-1.8029 l 5.22842,-20.73337 z"
       id="path4209"
       sodipodi:nodetypes="ccsssssssssccc" />
    <rect
       style="fill:#000000;fill-opacity:1;stroke:none;stroke-width:1.2161;stroke-linecap:round;paint-order:markers fill stroke"
       id="rect11447"
       width="15.033797"
       height="27.776848"
       x="94.65374"
       y="70.721924"
       ry="1.5414665" />
  </g>
</svg>
